<?xml version="1.0" encoding="utf-8"?>
<!-- Generator: Adobe Illustrator 22.0.0, SVG Export Plug-In . SVG Version: 6.00 Build 0)  -->
<svg version="1.1" id="图层_1" xmlns="http://www.w3.org/2000/svg" xmlns:xlink="http://www.w3.org/1999/xlink" x="0px" y="0px"
	 viewBox="0 0 200 200" style="enable-background:new 0 0 200 200;" xml:space="preserve">
<style type="text/css">
	.st0{fill:#A6CB50;}
	.st1{fill:none;stroke:#FFFFFF;stroke-width:8;stroke-miterlimit:10;}
	.st2{fill:none;stroke:#FFFFFF;stroke-width:8;stroke-linecap:round;stroke-miterlimit:10;}
</style>
<path class="st0" d="M0,99.7c0,55.2,44.8,100,100,100s100-44.8,100-100s-44.8-100-100-100S0,44.5,0,99.7z"/>
<g>
	<path class="st1" d="M127.7,71H141c3.8,0,6.9,2.1,6.9,4.7v71.2c0,2.6-3.1,4.7-6.9,4.7H59.6c-3.8,0-6.9-2.1-6.9-4.7V75.7
		c0-2.6,3.1-4.7,6.9-4.7h11.7"/>
	<line class="st1" x1="87.8" y1="71" x2="107.7" y2="71"/>
	<line class="st1" x1="54.7" y1="86.8" x2="148" y2="86.8"/>
	<line class="st2" x1="66.7" y1="99.8" x2="75" y2="99.8"/>
	<line class="st2" x1="66.7" y1="112.1" x2="75" y2="112.1"/>
	<line class="st2" x1="66.7" y1="124.7" x2="75" y2="124.7"/>
	<line class="st2" x1="66.7" y1="137.1" x2="75" y2="137.1"/>
	<line class="st2" x1="93.6" y1="99.8" x2="101.9" y2="99.8"/>
	<line class="st2" x1="93.6" y1="112.1" x2="101.9" y2="112.1"/>
	<line class="st2" x1="93.6" y1="124.7" x2="101.9" y2="124.7"/>
	<line class="st2" x1="93.6" y1="137.1" x2="101.9" y2="137.1"/>
	<line class="st2" x1="118.9" y1="99.8" x2="127.2" y2="99.8"/>
	<line class="st2" x1="118.9" y1="112.1" x2="127.2" y2="112.1"/>
	<line class="st2" x1="118.9" y1="124.7" x2="127.2" y2="124.7"/>
	<line class="st2" x1="118.9" y1="137.1" x2="127.2" y2="137.1"/>
	<rect x="76.7" y="51" class="st1" width="12.5" height="26.9"/>
	<rect x="114.7" y="51" class="st1" width="12.5" height="26.9"/>
	<path class="st1" d="M114.6,71"/>
</g>
</svg>
