<?xml version="1.0" encoding="utf-8"?>
<!-- Generator: Adobe Illustrator 22.0.0, SVG Export Plug-In . SVG Version: 6.00 Build 0)  -->
<svg version="1.1" id="图层_1" xmlns="http://www.w3.org/2000/svg" xmlns:xlink="http://www.w3.org/1999/xlink" x="0px" y="0px"
	 viewBox="0 0 130 130" style="enable-background:new 0 0 130 130;" xml:space="preserve">
<path d="M121.2,43.6c4.8,0,8.8-4,8.8-8.8v-26c0-4.8-4-8.8-8.8-8.8h-26c-4.8,0-8.8,4-8.8,8.8v8.8H42.8V8.8C42.8,4,38.8,0,34,0H8
	C3.1,0-0.8,4-0.8,8.8v26c0,4.8,4,8.8,8.8,8.8h8.8v43.6H8c-4.8,0-8.8,4-8.8,8.8v26c0,4.8,4,8.8,8.8,8.8h26c4.8,0,8.8-4,8.8-8.8v-8.8
	h43.6v8.8c0,4.8,4,8.8,8.8,8.8h26c4.8,0,8.8-4,8.8-8.8V96c0-4.8-4-8.8-8.8-8.8h-8.8V43.6H121.2z M95.1,8.8h26v26h-26V8.8z M8,8.8h26
	v26H8C8,34.8,8,8.8,8,8.8z M121.2,96v26h-26V96H121.2z M103.9,87.2h-8.8c-4.8,0-8.8,4-8.8,8.8v8.8H42.8V96c0-4.8-4-8.8-8.8-8.8h-8.8
	V43.6H34c4.8,0,8.8-4,8.8-8.8V26h43.6v8.8c0,4.8,4,8.8,8.8,8.8h8.8V87.2L103.9,87.2z"/>
</svg>
