<?xml version="1.0" encoding="utf-8"?>
<!-- Generator: Adobe Illustrator 22.0.0, SVG Export Plug-In . SVG Version: 6.00 Build 0)  -->
<svg version="1.1" id="图层_1" xmlns="http://www.w3.org/2000/svg" xmlns:xlink="http://www.w3.org/1999/xlink" x="0px" y="0px"
	 viewBox="0 0 200 200" style="enable-background:new 0 0 200 200;" xml:space="preserve">
<style type="text/css">
	.st0{fill:#6499FE;}
	.st1{display:none;}
	.st2{display:inline;}
	.st3{fill:#FFFFFF;}
	.st4{clip-path:url(#SVGID_7_);fill:#FFFFFF;}
</style>
<path class="st0" d="M0,99.8c0,55.2,44.8,100,100,100s100-44.8,100-100s-44.8-100-100-100S0,44.6,0,99.8z"/>
<g class="st1">
	<g class="st2">
		<g>
			<g>
				<path id="SVGID_2_" class="st3" d="M87.2,100.6h-12v7.4h-13v6.4h13v8.3h12v-7.4h50.1v-6.4H87.2V100.6z M108.2,97.8h12v-7.4h16
					V84h-16v-7.4h-12V84h-46v6.4h46V97.8z M145.1,141.6c0,1.8-1.5,3.2-3.2,3.2H59.2c-1.8,0-3.2-1.4-3.2-3.2V58.8
					c0-1.8,1.5-3.2,3.2-3.2h82.7c1.8,0,3.2,1.4,3.2,2.1L145.1,141.6L145.1,141.6z M141.8,46.7H59.1c-6.7,0-12.1,5.4-12.1,12.1v82.8
					c0,6.7,5.4,12.1,12.1,12.1h82.7c6.7,0,12.1-5.4,12.1-12.1V58.8C154,52.1,148.5,46.7,141.8,46.7z"/>
			</g>
			<g>
				<g>
					<path id="SVGID_3_" class="st3" d="M87.2,100.6h-12v7.4h-13v6.4h13v8.3h12v-7.4h50.1v-6.4H87.2V100.6z M108.2,97.8h12v-7.4h16
						V84h-16v-7.4h-12V84h-46v6.4h46V97.8z M145.1,141.6c0,1.8-1.5,3.2-3.2,3.2H59.2c-1.8,0-3.2-1.4-3.2-3.2V58.8
						c0-1.8,1.5-3.2,3.2-3.2h82.7c1.8,0,3.2,1.4,3.2,2.1L145.1,141.6L145.1,141.6z M141.8,46.7H59.1c-6.7,0-12.1,5.4-12.1,12.1v82.8
						c0,6.7,5.4,12.1,12.1,12.1h82.7c6.7,0,12.1-5.4,12.1-12.1V58.8C154,52.1,148.5,46.7,141.8,46.7z"/>
				</g>
				<g>
					<g>
						<path id="SVGID_4_" class="st3" d="M87.2,100.6h-12v7.4h-13v6.4h13v8.3h12v-7.4h50.1v-6.4H87.2V100.6z M108.2,97.8h12v-7.4h16
							V84h-16v-7.4h-12V84h-46v6.4h46V97.8z M145.1,141.6c0,1.8-1.5,3.2-3.2,3.2H59.2c-1.8,0-3.2-1.4-3.2-3.2V58.8
							c0-1.8,1.5-3.2,3.2-3.2h82.7c1.8,0,3.2,1.4,3.2,2.1L145.1,141.6L145.1,141.6z M141.8,46.7H59.1c-6.7,0-12.1,5.4-12.1,12.1
							v82.8c0,6.7,5.4,12.1,12.1,12.1h82.7c6.7,0,12.1-5.4,12.1-12.1V58.8C154,52.1,148.5,46.7,141.8,46.7z"/>
					</g>
					<g>
						<g>
							<path id="SVGID_5_" class="st3" d="M87.2,100.6h-12v7.4h-13v6.4h13v8.3h12v-7.4h50.1v-6.4H87.2V100.6z M108.2,97.8h12v-7.4
								h16V84h-16v-7.4h-12V84h-46v6.4h46V97.8z M145.1,141.6c0,1.8-1.5,3.2-3.2,3.2H59.2c-1.8,0-3.2-1.4-3.2-3.2V58.8
								c0-1.8,1.5-3.2,3.2-3.2h82.7c1.8,0,3.2,1.4,3.2,2.1L145.1,141.6L145.1,141.6z M141.8,46.7H59.1c-6.7,0-12.1,5.4-12.1,12.1
								v82.8c0,6.7,5.4,12.1,12.1,12.1h82.7c6.7,0,12.1-5.4,12.1-12.1V58.8C154,52.1,148.5,46.7,141.8,46.7z"/>
						</g>
						<g>
							<g>
								<defs>
									<path id="SVGID_6_" d="M87.2,100.6h-12v7.4h-13v6.4h13v8.3h12v-7.4h50.1v-6.4H87.2V100.6z M108.2,97.8h12v-7.4h16V84h-16
										v-7.4h-12V84h-46v6.4h46V97.8z M145.1,141.6c0,1.8-1.5,3.2-3.2,3.2H59.2c-1.8,0-3.2-1.4-3.2-3.2V58.8
										c0-1.8,1.5-3.2,3.2-3.2h82.7c1.8,0,3.2,1.4,3.2,2.1L145.1,141.6L145.1,141.6z M141.8,46.7H59.1c-6.7,0-12.1,5.4-12.1,12.1
										v82.8c0,6.7,5.4,12.1,12.1,12.1h82.7c6.7,0,12.1-5.4,12.1-12.1V58.8C154,52.1,148.5,46.7,141.8,46.7z"/>
								</defs>
								<clipPath id="SVGID_7_">
									<use xlink:href="#SVGID_6_"  style="overflow:visible;"/>
								</clipPath>
								<rect x="42" y="41.7" class="st4" width="116.9" height="117"/>
							</g>
						</g>
					</g>
				</g>
			</g>
		</g>
	</g>
</g>
<path id="SVGID_1_" class="st3" d="M87.2,100.6h-12v7.4h-13v6.4h13v8.3h12v-7.4h50.1v-6.4H87.2V100.6z M108.2,97.8h12v-7.4h16V84
	h-16v-7.4h-12V84h-46v6.4h46V97.8z M145.1,141.6c0,1.8-1.5,3.2-3.2,3.2H59.2c-1.8,0-3.2-1.4-3.2-3.2V58.8c0-1.8,1.5-3.2,3.2-3.2
	h82.7c1.8,0,3.2,1.4,3.2,2.1L145.1,141.6L145.1,141.6z M141.8,46.7H59.1c-6.7,0-12.1,5.4-12.1,12.1v82.8c0,6.7,5.4,12.1,12.1,12.1
	h82.7c6.7,0,12.1-5.4,12.1-12.1V58.8C154,52.1,148.5,46.7,141.8,46.7z"/>
</svg>
