<?xml version="1.0" encoding="utf-8"?>
<!-- Generator: Adobe Illustrator 22.0.0, SVG Export Plug-In . SVG Version: 6.00 Build 0)  -->
<svg version="1.1" id="图层_1" xmlns="http://www.w3.org/2000/svg" xmlns:xlink="http://www.w3.org/1999/xlink" x="0px" y="0px"
	 viewBox="0 0 130 130" style="enable-background:new 0 0 130 130;" xml:space="preserve">
<path d="M96.9,128.8c3.3,0.2,6.1-2.8,6.3-6.6l0,0V84.6l-28.4,29.8c-0.5,0.5-1.1,0.8-1.6,1.2l0.2,0.2l-23,12.9H96.9L96.9,128.8
	L96.9,128.8z M68.4,115.8l-14.5-14.6L42.1,130L68.4,115.8L68.4,115.8z M103.2,6.6c-0.1-3.9-2.9-6.7-6.3-6.6l0,0H9.3
	C6-0.2,3.2,2.8,2.9,6.6l0,0v115.5c0.1,3.9,2.9,6.9,6.2,6.6l0,0h31l12.4-31.7l0.2,0.2c0.5-1.3,1.2-2.6,2.1-3.6l48.2-50.6V6.6H103.2z
	 M124.3,33.1c-2.5-2.2-6-1.8-8.1,0.7L61,92.2c-2.2,1.8-2.7,5.4-1.2,7.9c0.1,0.2,0.2,0.4,0.4,0.6l7.4,7.7c2.5,2,6,1.8,8.1-0.8
	l55.3-58.4c2.2-1.8,2.7-5.4,1.2-8.1c-0.1-0.2-0.2-0.4-0.4-0.6L124.3,33.1L124.3,33.1z M12.4,58.4c0.8-3.1,3.5-4.9,6.3-4.5h40.6
	c2.7-0.6,5.4,1.3,6.3,4.5c-0.8,3.1-3.5,4.9-6.3,4.3H18.6C15.9,63.3,13.2,61.4,12.4,58.4L12.4,58.4z M12.4,36c0.8-3,3.5-4.9,6.3-4.3
	h65.7c2.7-0.6,5.4,1.2,6.3,4.3c-0.9,3-3.5,4.8-6.3,4.2H18.7C15.9,40.8,13.2,39,12.4,36L12.4,36z M84.3,18.1H18.6
	c-2.7,0.6-5.3-1.1-6.3-4.1c0.9-2.9,3.6-4.7,6.3-4.1h65.7C87,9.3,89.6,11,90.7,14C89.7,17,87,18.7,84.3,18.1z"/>
</svg>
