<?xml version="1.0" encoding="utf-8"?>
<!-- Generator: Adobe Illustrator 22.0.0, SVG Export Plug-In . SVG Version: 6.00 Build 0)  -->
<svg version="1.1" id="图层_1" xmlns="http://www.w3.org/2000/svg" xmlns:xlink="http://www.w3.org/1999/xlink" x="0px" y="0px"
	 viewBox="0 0 200 200" style="enable-background:new 0 0 200 200;" xml:space="preserve">
<style type="text/css">
	.st0{fill:#A6CB50;}
	.st1{fill:#FFFFFF;}
</style>
<path class="st0" d="M0,100c0,55.2,44.8,100,100,100s100-44.8,100-100S155.2,0,100,0S0,44.8,0,100z"/>
<path class="st1" d="M135.1,155c2.8,0.2,5.2-2.3,5.4-5.5l0,0v-31.2l-24.3,24.8c-0.4,0.4-0.9,0.7-1.4,1l0.2,0.2L95.3,155H135.1
	L135.1,155L135.1,155z M110.8,144.2l-12.4-12.1L88.3,156L110.8,144.2L110.8,144.2z M140.5,53.5c-0.1-3.2-2.5-5.6-5.4-5.5l0,0H60.2
	c-2.8-0.2-5.2,2.3-5.4,5.5l0,0v96c0.1,3.2,2.5,5.7,5.3,5.5l0,0h26.5l10.6-26.3l0.2,0.2c0.4-1.1,1-2.2,1.8-3l41.2-42V53.5H140.5z
	 M158.6,75.5c-2.1-1.8-5.1-1.5-6.9,0.6l-47.3,48.5c-1.9,1.5-2.3,4.5-1,6.6c0.1,0.2,0.2,0.3,0.3,0.5l6.3,6.4c2.1,1.7,5.1,1.5,6.9-0.7
	l47.3-48.5c1.9-1.5,2.3-4.5,1-6.7c-0.1-0.2-0.2-0.3-0.3-0.5L158.6,75.5L158.6,75.5z M62.9,96.5c0.7-2.6,3-4.1,5.4-3.7H103
	c2.3-0.5,4.6,1.1,5.4,3.7c-0.7,2.6-3,4.1-5.4,3.6H68.2C65.9,100.6,63.6,99,62.9,96.5L62.9,96.5z M62.9,77.9c0.7-2.5,3-4.1,5.4-3.6
	h56.2c2.3-0.5,4.6,1,5.4,3.6c-0.8,2.5-3,4-5.4,3.5H68.3C65.9,81.9,63.6,80.4,62.9,77.9L62.9,77.9z M124.4,63H68.2
	c-2.3,0.5-4.5-0.9-5.4-3.4c0.8-2.4,3.1-3.9,5.4-3.4h56.2c2.3-0.5,4.5,0.9,5.4,3.4C129,62.1,126.7,63.5,124.4,63z"/>
</svg>
