<?xml version="1.0" encoding="utf-8"?>
<!-- Generator: Adobe Illustrator 22.0.0, SVG Export Plug-In . SVG Version: 6.00 Build 0)  -->
<svg version="1.1" id="图层_1" xmlns="http://www.w3.org/2000/svg" xmlns:xlink="http://www.w3.org/1999/xlink" x="0px" y="0px"
	 viewBox="0 0 200 200" style="enable-background:new 0 0 200 200;" xml:space="preserve">
<path d="M100,0.6C45.1,0.6,0.6,45.1,0.6,100c0,0,0,0,0,0c0,54.9,44.5,99.4,99.4,99.4s99.4-44.5,99.4-99.4S154.9,0.6,100,0.6z
	 M139.6,59.7c-6.5,11.2-13.3,22.2-19.9,33.2c-0.7,1.1-1.4,2.3-2.3,3.9c1.6,0.1,2.8,0.1,3.9,0.2c3.6,0.3,7.2,0.2,10.7,0.9
	c3,0.6,4.2,2.8,4.2,5.8c0,2.9-1.5,4.8-4.1,5.6c-1.6,0.5-3.3,0.8-5,0.9c-5.5,0.1-10.9,0-16.6,0v10.2c4.4,0,8.9,0,13.3,0
	c2.2,0,4.5,0.1,6.7,0.5c4,0.7,5.8,2.8,5.8,6.3c0,3.4-1.8,5.7-5.9,6.1c-4.7,0.5-9.5,0.4-14.2,0.6c-1.9,0.1-3.7,0-5.6,0
	c-0.3,4-0.3,7.8-0.9,11.5c-0.9,6-4.3,8.7-9.8,8.6c-3.3-0.1-5.9-1.5-7-4.6c-1-2.8-1.5-5.9-1.9-8.8c-0.3-2-0.1-4.1-0.1-6.6h-3.2
	c-5.6-0.2-11.3-0.1-16.9-0.6c-3.5-0.3-5.3-2.2-5.8-4.8c-0.6-3.7,1-6.4,4.6-7.3c2-0.5,4.1-0.7,6.1-0.7c4.9-0.1,9.9,0,15,0v-10.2
	c-5.4,0-10.8,0-16.1,0c-1.7,0-3.4-0.2-5-0.7c-3.3-0.9-4.7-2.9-4.7-6c0-3,1.3-4.9,4.7-5.7c2.4-0.5,4.8-0.7,7.2-0.8
	c2.2-0.1,4.4,0,7.2,0c-1-1.6-1.7-2.8-2.4-3.9c-6.6-10.3-13.2-20.5-19.8-30.8c-0.5-0.8-1-1.7-1.5-2.6c-3.3-6.1-1.9-10.7,4.2-13.7h4.3
	c3.5,1.3,5.6,4,7.5,7c7.5,11.9,15.1,23.7,22.7,35.6c0.5,0.8,1.1,1.6,1.7,2.5c0.6-1,1.1-1.6,1.5-2.3c7.1-11.8,14.3-23.6,21.4-35.4
	c1.9-3.2,3.9-6.2,7.7-7.4h4.3C141.7,49.2,143.2,53.6,139.6,59.7L139.6,59.7z"/>
</svg>
