<?xml version="1.0" encoding="utf-8"?>
<!-- Generator: Adobe Illustrator 22.0.0, SVG Export Plug-In . SVG Version: 6.00 Build 0)  -->
<svg version="1.1" id="图层_1" xmlns="http://www.w3.org/2000/svg" xmlns:xlink="http://www.w3.org/1999/xlink" x="0px" y="0px"
	 viewBox="0 0 130 130" style="enable-background:new 0 0 130 130;" xml:space="preserve">
<path d="M125.8,121.9c0,4.4-3.9,8-8.6,8.1c0,0-0.1,0-0.1,0l-102.8-0.8c-5.6,0-9.3-3.4-9.3-8.6v-103c0-5.2,3.7-8.6,9.3-8.6h18.6v12
	c0,3.4,3.7,6.9,8.4,7.7h6.5c4.6,0,8.3-3.4,8.4-7.7c0,0,0-0.1,0-0.1v-12h18.6v12c0,3.4,3.7,6.9,8.4,7.7h6.5c4.6,0,8.3-3.4,8.4-7.7
	c0,0,0-0.1,0-0.1v-12h18.6c5.6,0,9.3,3.4,9.3,8.6L125.8,121.9z M23.6,47v5.7c0,1,0.9,1.9,1.9,1.9h80.1c0.9,0,1.9-1,1.9-1.9V47
	c0-1-0.9-1.9-1.9-1.9H25.5C24.6,45.1,23.6,46.1,23.6,47L23.6,47z M23.6,72.6v6.1c0,0.9,2,1.7,4.1,1.7h73.9c2,0,4.1-0.9,4.1-1.7v-6.1
	c0-0.9-2.1-1.7-4.1-1.7H27.7C25.7,70.9,23.6,71.7,23.6,72.6z M48.1,1c0.9,0,0.9,0,0,0.8v22.6c0,0,0,0.8-1,0.8h-6.6c0,0-1,0-1-0.8
	V1.8c0-0.8,1-0.8,1.9-0.8H48.1z M90.5,1c0.9,0,0.9,0,0.9,0.8v22.6c0,0,0,0.8-1,0.8h-6.6c0,0-0.9,0-0.9-0.8V1.8c0,0,0-0.8,1-0.8H90.5
	z"/>
</svg>
