<?xml version="1.0" encoding="utf-8"?>
<!-- Generator: Adobe Illustrator 22.0.0, SVG Export Plug-In . SVG Version: 6.00 Build 0)  -->
<svg version="1.1" id="图层_1" xmlns="http://www.w3.org/2000/svg" xmlns:xlink="http://www.w3.org/1999/xlink" x="0px" y="0px"
	 viewBox="0 0 200 200" style="enable-background:new 0 0 200 200;" xml:space="preserve">
<style type="text/css">
	.st0{fill:#F26D64;}
	.st1{fill:#FFFFFF;}
</style>
<path class="st0" d="M0,100c0,55.2,44.8,100,100,100s100-44.8,100-100S155.2,0,100,0S0,44.8,0,100z"/>
<g>
	<path class="st1" d="M140.6,112L140.6,112c-0.6-0.6-1.7-1.8-3.8-1.8c-1.4,0-2.8,0.6-3.8,1.6s-1.6,2.4-1.6,3.8v3.9
		c-3.8,0.5-7.1,1.6-9.9,3.2c-3,1.7-5.4,4.2-7.2,7.1c-3.1,5.2-3.5,10.8-3.7,13.5c0,0.4-0.1,0.8-0.1,1c0,0.1,0,0.2,0,0.3
		c0,3,2.7,5,5,5c1.8,0,3.3-0.9,4.2-2.7c3.2-5.1,6.9-7.7,11.6-8.2v4.8c0,2.9,2.2,5,5,5c2,0,3.2-1.1,3.7-1.7l0,0l0.1-0.1l11.3-12.6
		c0.9-0.9,2.5-2.5,2.5-4.9c0-1.9-0.7-3.7-2.1-5L140.6,112z M147.3,130.1l-0.1,0.1l-9.9,11v-5.4c0-1.6-1.2-2.9-2.8-3
		c-4.4-0.2-8.3,0.7-11.7,2.7c-2.2,1.3-4.2,3.1-6,5.3c1.1-7.4,4.6-14.8,17.7-15.6c1.6-0.1,2.8-1.4,2.8-3v-5.1l10.4,11.3
		c0.1,0.1,0.1,0.1,0.2,0.2c0.2,0.2,0.3,0.4,0.3,0.6C147.9,129.4,147.5,129.9,147.3,130.1L147.3,130.1z M102.2,145.1h-6.5
		c-2.5,0-3.1,0.5-3.1,3.1v6.6c0,2.5,0.5,3.1,3.1,3.1h6.5c2.5,0,3.1-0.5,3.1-3.1v-6.6C105.1,145.6,104.6,145.1,102.2,145.1
		L102.2,145.1z M80.7,145.1h-6.5c-2.5,0-3.1,0.5-3.1,3.1v6.6c0,2.5,0.5,3.1,3.1,3.1h6.5c2.5,0,3.1-0.5,3.1-3.1v-6.6
		C83.6,145.6,83,145.1,80.7,145.1L80.7,145.1z M80.7,122.1h-6.5c-2.5,0-3.1,0.5-3.1,3.1v6.5c0,2.5,0.5,3.1,3.1,3.1h6.5
		c2.5,0,3.1-0.5,3.1-3.1v-6.6C83.6,122.6,83,122.1,80.7,122.1z M95.8,100.3c-2.5,0-3.1,0.5-3.1,3.1v6.6c0,2.5,0.5,3.1,3.1,3.1h6.5
		c2.5,0,3.1-0.5,3.1-3.1v-6.6c-0.2-2.5-0.7-3.1-3.1-3.1H95.8z M102.2,122.1h-6.5c-2.5,0-3.1,0.5-3.1,3.1v6.5c0,2.5,0.5,3.1,3.1,3.1
		h6.5c2.5,0,3.1-0.5,3.1-3.1v-6.6C105.1,122.6,104.6,122.1,102.2,122.1z M80.7,100.3h-6.5c-2.5,0-3.1,0.5-3.1,3.1v6.6
		c0,2.5,0.5,3.1,3.1,3.1h6.5c2.5,0,3.1-0.5,3.1-3.1v-6.6C83.6,100.7,83,100.3,80.7,100.3z"/>
	<path class="st1" d="M148.4,92.6c1.5,1.2,3.7,1,4.9-0.6c1.2-1.5,1-3.7-0.6-4.9c-0.1,0-0.1-0.1-0.2-0.1l-51.4-38.5
		c-1.2-0.9-3-0.9-4.2,0L45.5,87c-1.6,1.2-1.9,3.4-0.7,4.9c1.2,1.6,3.4,1.9,4.9,0.7l5-3.7v65.4c0,1.9,1.6,3.5,3.5,3.5
		s3.5-1.6,3.5-3.5l0,0V83.6l37.4-27.9L148.4,92.6z"/>
</g>
</svg>
