<?xml version="1.0" encoding="utf-8"?>
<!-- Generator: Adobe Illustrator 22.0.0, SVG Export Plug-In . SVG Version: 6.00 Build 0)  -->
<svg version="1.1" id="图层_1" xmlns="http://www.w3.org/2000/svg" xmlns:xlink="http://www.w3.org/1999/xlink" x="0px" y="0px"
	 viewBox="0 0 130 130" style="enable-background:new 0 0 130 130;" xml:space="preserve">
<style type="text/css">
	.st0{fill:none;}
</style>
<path class="st0" d="M23.8,37.9c3.2,0,5.9-2.5,5.9-5.8c-0.1-3.2-2.7-5.8-5.9-5.6c-2.1-0.1-4.2,0.9-5.3,2.8c-1.1,1.8-1.1,4,0,5.8
	C19.5,37,21.5,38.1,23.8,37.9z"/>
<path class="st0" d="M23.8,51.1c-3.3-0.1-5.9,2.5-6,5.8c0,3.3,2.7,5.9,6,5.8c3.3,0.1,6-2.5,6-5.8C29.6,53.6,26.9,51.1,23.8,51.1z"/>
<path class="st0" d="M23.8,75.9c-3.3-0.1-5.9,2.5-6,5.8c0,3.1,2.7,5.6,6,5.6c3.3,0.1,6-2.5,6-5.8C29.6,78.3,26.9,75.8,23.8,75.9z"/>
<path class="st0" d="M85.1,28.8h18.7L80.6,6.9v17.6c0,1.2,0.5,2.2,1.3,3.1C82.8,28.3,84,28.8,85.1,28.8z"/>
<path class="st0" d="M38.6,34.6h29.3c1.4,0,2.6-1.1,2.6-2.5s-1.2-2.5-2.6-2.5H38.6c-1.4,0-2.6,1.1-2.6,2.5
	C36,33.6,37.2,34.6,38.6,34.6z"/>
<path class="st0" d="M38.6,59.4h29.3c1.4,0,2.6-1.1,2.6-2.5s-1.2-2.5-2.6-2.5H38.6c-1.4,0-2.6,1.1-2.6,2.5S37.2,59.4,38.6,59.4z"/>
<path class="st0" d="M49.5,79.1H38.6c-1.4,0-2.6,1.1-2.6,2.5c0,1.4,1.2,2.5,2.6,2.5h10.9c1.4,0,2.6-1.1,2.6-2.5
	C52.1,80.2,50.9,79.1,49.5,79.1z"/>
<path class="st0" d="M106.4,99.4c3.4-6.8,2-14.9-3.3-20.4c-6.4-6.4-16.7-6.5-23.1-0.1c-0.2,0.2-0.4,0.4-0.6,0.6
	c-6.4,6.9-6.1,17.8,0.5,24.5c5.8,5.6,14.4,6.4,20.7,2l7.9,7.9c1.8,1.6,4.5,1.6,6-0.1c1.8-1.8,1.6-4.5,0-6.2L106.4,99.4z M99.2,99.1
	c-3.9,4.2-10.5,4.6-14.7,0.7c-0.1-0.1-0.2-0.2-0.4-0.4c-4.2-4.4-4.4-11.2-0.2-15.6c3.9-4.2,10.5-4.6,14.7-0.7
	c0.1,0.1,0.2,0.2,0.4,0.4C103.2,87.7,103.3,94.8,99.2,99.1z"/>
<path d="M98.6,83.1c-4.2-3.9-10.8-3.5-14.7,0.7c-4.1,4.5-4,11.3,0.2,15.6c0.1,0.1,0.2,0.2,0.4,0.4c4.2,3.9,10.8,3.5,14.7-0.7
	c4.1-4.4,4-11.4-0.2-15.6C98.8,83.4,98.7,83.2,98.6,83.1z"/>
<path d="M55.6,97c0-20.7,17.8-37.5,39.6-37.5c4.4,0.1,8.7,0.7,12.8,2.1V28.8l-0.2-0.1l-2.7-2.8L83.4,5.2l-2.8-2.6l-0.2-0.1H10.7
	c-4.1,0-7.4,3.2-7.4,7.1v108.7c0.1,4,3.4,7.2,7.4,7.1h58.7C60.9,118.4,55.6,108.3,55.6,97z M80.6,6.9l23.2,21.9H85.1
	c-1.1,0-2.2-0.5-3.2-1.2c-0.8-0.8-1.3-1.9-1.3-3.1V6.9z M38.6,29.7h29.3c1.4,0,2.6,1.1,2.6,2.5s-1.2,2.5-2.6,2.5H38.6
	c-1.4,0-2.6-1.1-2.6-2.5C36,30.8,37.2,29.7,38.6,29.7z M38.6,54.4h29.3c1.4,0,2.6,1.1,2.6,2.5s-1.2,2.5-2.6,2.5H38.6
	c-1.4,0-2.6-1.1-2.6-2.5S37.2,54.4,38.6,54.4z M18.5,29.4c1.1-1.9,3.2-2.9,5.3-2.8c3.2-0.1,5.8,2.5,5.9,5.6c0,3.3-2.7,5.8-5.9,5.8
	c-2.2,0.1-4.2-0.9-5.3-2.8C17.4,33.4,17.4,31.1,18.5,29.4z M23.8,87.4c-3.3,0-6-2.6-6-5.6c0.1-3.3,2.7-5.9,6-5.8
	c3.2-0.1,5.9,2.4,6,5.6C29.8,84.9,27.1,87.5,23.8,87.4z M23.8,62.6c-3.3,0.1-6-2.5-6-5.8c0.1-3.3,2.7-5.9,6-5.8c3.2,0,5.9,2.5,6,5.8
	C29.8,60.2,27.1,62.8,23.8,62.6z M49.5,84.1H38.6c-1.4,0-2.6-1.1-2.6-2.5c0-1.4,1.2-2.5,2.6-2.5h10.9c1.4,0,2.6,1.1,2.6,2.5
	C52.1,83,50.9,84.1,49.5,84.1z"/>
<path d="M93.1,63.9c-18.6,0-33.6,14.2-33.6,31.8s15.1,31.8,33.6,31.8c18.6,0,33.6-14.2,33.6-31.8S111.6,63.9,93.1,63.9z
	 M114.5,113.7c-1.5,1.8-4.2,1.8-6,0.1l-7.9-7.9c-6.4,4.4-14.9,3.6-20.7-2c-6.6-6.7-6.8-17.5-0.5-24.5c0.2-0.2,0.4-0.4,0.6-0.6
	c6.4-6.4,16.7-6.2,23.1,0.1c5.3,5.4,6.7,13.5,3.3,20.4l8.1,8.1C116.1,109.2,116.2,111.9,114.5,113.7z"/>
</svg>
