<?xml version="1.0" encoding="utf-8"?>
<!-- Generator: Adobe Illustrator 22.0.0, SVG Export Plug-In . SVG Version: 6.00 Build 0)  -->
<svg version="1.1" id="图层_1" xmlns="http://www.w3.org/2000/svg" xmlns:xlink="http://www.w3.org/1999/xlink" x="0px" y="0px"
	 viewBox="0 0 200 200" style="enable-background:new 0 0 200 200;" xml:space="preserve">
<style type="text/css">
	.st0{fill:#FFFFFF;}
	.st1{fill:#A6CB50;}
</style>
<path class="st0" d="M59.2,110.9l46.9,27.1c1.4,0.9,3.1,1.4,4.5,1.4c3.2,0,5.9-1.8,7.7-4.5c2.2-4.1,0.9-9.5-3.1-11.8
	c-2.2-1.8-4.1-4.5-4-7.2c0-1.8,0.4-3.6,1.3-5l-32-18.5c-1,1.5-2.4,2.8-4.1,3.6c-1.1,0.6-2.4,0.9-3.6,0.9c-1.6,0-3.2-0.4-4.5-1.4
	c-1.4-0.9-2.9-1.3-4.5-1.4c-3.2,0-5.9,1.8-7.7,4.5c-1.4,1.8-1.4,4.5-0.9,6.8C55.7,107.7,57,109.5,59.2,110.9L59.2,110.9z M129.2,146
	H48c-2.5,0.2-4.4,2.4-4.2,4.8c0.2,2.2,1.9,4,4.2,4.2h81.2c2.3,0,4.5-1.8,4.5-4.5C133.7,147.8,131.9,146,129.2,146L129.2,146z
	 M127.9,46.3c-10.8-6.2-24.5-2.5-30.7,8.2c-2.6,4.5-3.5,9.7-2.7,14.8c1.4,8.1-2.1,16.2-8.8,20.9l25.3,14.6c0.2-3,1.2-6,2.8-8.8
	c2.5-4.4,6.5-7.6,10.9-9.2c11.6-4.4,17.4-17.4,13-29C135.8,52.9,132.3,48.9,127.9,46.3L127.9,46.3z M125.4,55.9
	c-0.7,1.2-2.3,1.7-3.6,0.9c-4.9-2.9-11.3-1.3-14.2,3.7c-0.6,1.3-2.2,1.9-3.5,1.3c-1.3-0.6-1.9-2.2-1.3-3.5c0.1-0.1,0.1-0.3,0.2-0.4
	c4.4-7.4,13.9-9.9,21.4-5.6C125.6,53,126.1,54.6,125.4,55.9z"/>
<path class="st1" d="M0,100c0,55.2,44.8,100,100,100s100-44.8,100-100S155.2,0,100,0S0,44.8,0,100z"/>
<path class="st0" d="M121.8,70.1h15.9L118,51.5v15c0,1,0.4,1.9,1.1,2.6C119.9,69.7,120.9,70.1,121.8,70.1z M107.2,75.1
	c1.2,0,2.2-0.9,2.2-2.1c0-1.2-1-2.1-2.2-2.1H82.3c-1.2,0-2.2,0.9-2.2,2.1l0,0c0,1.2,1,2.1,2.2,2.1H107.2z M107.2,96.1
	c1.2,0,2.2-0.9,2.2-2.1c0-1.2-1-2.1-2.2-2.1H82.3c-1.2,0-2.2,0.9-2.2,2.1l0,0c0,1.2,1,2.1,2.2,2.1H107.2z M91.6,117.1
	c1.2,0,2.2-0.9,2.2-2.1l0,0c0-1.2-1-2.1-2.2-2.1l0,0h-9.3c-1.2,0-2.2,0.9-2.2,2.1c0,1.2,1,2.1,2.2,2.1H91.6z M69.7,77.9
	c2.7,0,5-2.1,5-4.9c-0.1-2.7-2.3-4.9-5-4.8c-1.8-0.1-3.6,0.8-4.5,2.4c-0.9,1.5-0.9,3.4,0,4.9C66.1,77.1,67.8,78,69.7,77.9z
	 M69.7,98.9c2.8,0.1,5.1-2.1,5.1-4.9c-0.1-2.8-2.4-4.9-5.1-4.9c-2.8-0.1-5,2.1-5.1,4.9C64.6,96.8,66.9,99,69.7,98.9z M69.7,119.9
	c2.8,0.1,5.1-2.1,5.1-4.9c-0.1-2.8-2.4-4.9-5.1-4.8c-2.8-0.1-5,2.1-5.1,4.9C64.6,117.7,66.9,119.9,69.7,119.9L69.7,119.9z M141.2,70
	l0.2,0.1V98c-3.5-1.2-7.2-1.7-10.9-1.8c-18.6,0-33.7,14.3-33.7,31.9c0,9.6,4.5,18.2,11.7,24.1H58.6c-3.4,0.1-6.2-2.6-6.3-6V53.8
	c0-3.3,2.8-6,6.3-6h59.2l0.2,0.1l2.4,2.2l18.5,17.5L141.2,70L141.2,70z M128.6,100c15.8,0,28.6,12.1,28.6,27s-12.8,27-28.6,27
	S100,141.9,100,127S112.8,100,128.6,100z M146.8,137l-6.9-6.9c2.9-5.8,1.7-12.7-2.8-17.3c-5.4-5.4-14.2-5.5-19.6-0.1
	c-0.2,0.2-0.3,0.3-0.5,0.5c-5.4,5.9-5.2,15.1,0.4,20.8c4.9,4.8,12.2,5.4,17.6,1.7l6.7,6.7c1.5,1.4,3.8,1.4,5.1-0.1
	C148.3,140.8,148.2,138.5,146.8,137L146.8,137z M121,130.2c-3.6-3.7-3.7-9.5-0.2-13.3c3.3-3.6,8.9-3.9,12.5-0.6
	c0.1,0.1,0.2,0.2,0.3,0.3c3.6,3.6,3.7,9.6,0.2,13.3c-3.3,3.6-8.9,3.9-12.5,0.6C121.2,130.4,121.1,130.3,121,130.2L121,130.2z"/>
</svg>
