<?xml version="1.0" encoding="utf-8"?>
<!-- Generator: Adobe Illustrator 22.0.0, SVG Export Plug-In . SVG Version: 6.00 Build 0)  -->
<svg version="1.1" id="图层_1" xmlns="http://www.w3.org/2000/svg" xmlns:xlink="http://www.w3.org/1999/xlink" x="0px" y="0px"
	 viewBox="0 0 130 130" style="enable-background:new 0 0 130 130;" xml:space="preserve">
<g>
	<g>
		<path d="M97.2,78.6c-1.8,0-3.7,0.3-5.3,1L74.2,47.9c3.1-2.7,5.2-6.6,5.2-11.1c0-8-6.5-14.4-14.3-14.4s-14.4,6.5-14.4,14.5
			c0,3.7,1.4,7,3.7,9.6l-18,32.6c-1.2-0.2-2.3-0.5-3.5-0.5c-8,0-14.3,6.5-14.3,14.4s6.5,14.4,14.3,14.4c7,0,12.9-5.2,14.1-12h36.1
			c1.2,6.8,7,12,14.1,12c8,0,14.3-6.5,14.3-14.4C111.5,85.1,105.1,78.6,97.2,78.6L97.2,78.6z M58.9,50c1.8,0.9,3.9,1.4,6,1.4
			c1.5,0,2.8-0.2,4.2-0.7L87,82.8c-1.8,1.8-3.1,4.3-3.7,6.8H46.8c-0.8-3.3-2.7-6.1-5.3-8.2L58.9,50L58.9,50z"/>
	</g>
	<path d="M112.7,3.2H17.3c-7.7,0-14,6.2-14,14v95.6c0,7.7,6.2,14,14,14h95.5c7.7,0,14-6.2,14-14V17.2C126.8,9.5,120.5,3.2,112.7,3.2
		L112.7,3.2z M116.5,112.8c0,2.1-1.7,3.7-3.7,3.7H17.4c-2.1,0-3.7-1.6-3.7-3.7V17.2c0-2.1,1.7-3.7,3.7-3.7h95.5
		c2.1,0,3.7,1.6,3.7,2.4V112.8L116.5,112.8z"/>
</g>
</svg>
