<?xml version="1.0" encoding="utf-8"?>
<!-- Generator: Adobe Illustrator 22.0.0, SVG Export Plug-In . SVG Version: 6.00 Build 0)  -->
<svg version="1.1" id="图层_1" xmlns="http://www.w3.org/2000/svg" xmlns:xlink="http://www.w3.org/1999/xlink" x="0px" y="0px"
	 viewBox="0 0 130 130" style="enable-background:new 0 0 130 130;" xml:space="preserve">
<path d="M45.5,36.9C45.2,49.6,51.8,61.5,62.7,68c10.6,6.3,23.9,6.3,34.5,0c10.8-6.5,17.3-18.1,17.2-30.7c0.6-19.4-14.7-35.5-34-36
	c-0.2,0-0.5,0-0.6,0C60.5,1.8,45.1,17.6,45.5,36.9z"/>
<path d="M42.8,51h-38c-2.6,0.2-4.7,2.2-4.8,4.8V129h21.6c-5.7-24,7.6-40.3,26-51.8V55.1C47.4,52.6,45.2,50.8,42.8,51z M14.6,63.8
	h19.5c1.5,0,2.8,1.2,2.8,2.8c0,1.5-1.2,2.8-2.8,2.8H14.6c-1.5,0-2.8-1.2-2.8-2.8C11.9,65,13.1,63.8,14.6,63.8z M34.2,78.8H14.6
	c-1.5,0-2.7-1.3-2.7-2.8s1.2-2.8,2.8-2.8h19.5c1.5,0,2.8,1.2,2.8,2.8C37,77.6,35.8,78.8,34.2,78.8z"/>
<path d="M98.2,81.1l-11.4,24.4l-4.1-10.6c0.4-2.1,1.2-4,2.4-5.7c1.6-4.1,2.4-5.7-1.6-8.1c-3.7-2.1-8.4-0.7-10.5,3
	c0,0.1-0.1,0.1-0.1,0.2c-1.6,4.1,2.4,5.7,2.4,8.1c-0.6,4.4-1.4,8.7-2.4,13c0,0,0,3.2-4.1-4.8c-3.1-6.7-5.8-13.5-8.1-20.4
	c-21.7,7.4-33.1,22-33.1,43.2c0,8.1,99.8,12.2,102.2-4.8C132.3,101.5,101.5,73.1,98.2,81.1L98.2,81.1z"/>
</svg>
