<?xml version="1.0" encoding="utf-8"?>
<!-- Generator: Adobe Illustrator 22.0.0, SVG Export Plug-In . SVG Version: 6.00 Build 0)  -->
<svg version="1.1" id="图层_1" xmlns="http://www.w3.org/2000/svg" xmlns:xlink="http://www.w3.org/1999/xlink" x="0px" y="0px"
	 viewBox="0 0 200 200" style="enable-background:new 0 0 200 200;" xml:space="preserve">
<style type="text/css">
	.st0{fill:#6499FE;}
	.st1{display:none;}
	.st2{display:inline;}
	.st3{fill:#FFFFFF;}
	.st4{clip-path:url(#SVGID_5_);fill:#FFFFFF;}
</style>
<path class="st0" d="M0,99.8c0,55.2,44.8,100,100,100s100-44.8,100-100s-44.8-100-100-100S0,44.6,0,99.8z"/>
<g class="st1">
	<g class="st2">
		<g>
			<path id="SVGID_2_" class="st3" d="M130.3,73.6h-22.4v-7.9h22.4V73.6z M130.3,94.3h-28.6v-7.9h28.6V94.3z M130.3,114.9H68.6V107
				h61.8L130.3,114.9L130.3,114.9z M68.6,135.4l-0.2-7.8h61.8l0.2,7.9L68.6,135.4z M85.5,85.3c-1.5-0.9-3.1-1.6-4.8-2
				c-1.8-0.6-3.6-1.3-5.3-2.2c-1.3-0.7-2.3-1.7-3.1-3c-0.8-1.4-1.2-2.9-1.2-4.5c0-2.2,0.7-4.3,2.1-6c1.7-1.9,4.1-3.1,6.6-3.3v-3.5
				h4.1v3.6c4.3,0.3,7.9,3.2,8.9,7.2l-5.6,2.1c-1.1-2.9-2.8-4.4-5-4.4c-1,0-2,0.3-2.8,1c-0.7,0.6-1.1,1.5-1.1,2.4
				c-0.1,0.8,0.3,1.7,1,2.2c1.3,0.8,2.8,1.4,4.3,1.9c2,0.7,3.9,1.5,5.7,2.4c2.9,1.5,4.6,4.4,4.5,7.6c0.1,2.4-0.8,4.8-2.5,6.6
				c-2,1.9-4.6,3-7.4,3.1v4.5h-4.1v-4.6c-5-0.2-9.2-3.9-9.9-8.7l6.3-1.5c0.1,1.4,0.7,2.7,1.8,3.7c1.1,0.9,2.5,1.4,4,1.3
				c1.2,0.1,2.5-0.3,3.4-1.1c0.7-0.7,1.1-1.6,1.1-2.6C86.7,86.7,86.3,85.8,85.5,85.3L85.5,85.3z M137.9,50.4h-75c-5,0.1-9,4-8.9,8.7
				v83.7c0,4.8,4,8.7,8.9,8.7h74.9c5-0.1,9-4,8.9-8.8V59.2c0-2.3-0.9-4.5-2.6-6.2C142.5,51.4,140.3,50.4,137.9,50.4z"/>
		</g>
		<g>
			<g>
				<path id="SVGID_3_" class="st3" d="M130.3,73.6h-22.4v-7.9h22.4V73.6z M130.3,94.3h-28.6v-7.9h28.6V94.3z M130.3,114.9H68.6V107
					h61.8L130.3,114.9L130.3,114.9z M68.6,135.4l-0.2-7.8h61.8l0.2,7.9L68.6,135.4z M85.5,85.3c-1.5-0.9-3.1-1.6-4.8-2
					c-1.8-0.6-3.6-1.3-5.3-2.2c-1.3-0.7-2.3-1.7-3.1-3c-0.8-1.4-1.2-2.9-1.2-4.5c0-2.2,0.7-4.3,2.1-6c1.7-1.9,4.1-3.1,6.6-3.3v-3.5
					h4.1v3.6c4.3,0.3,7.9,3.2,8.9,7.2l-5.6,2.1c-1.1-2.9-2.8-4.4-5-4.4c-1,0-2,0.3-2.8,1c-0.7,0.6-1.1,1.5-1.1,2.4
					c-0.1,0.8,0.3,1.7,1,2.2c1.3,0.8,2.8,1.4,4.3,1.9c2,0.7,3.9,1.5,5.7,2.4c2.9,1.5,4.6,4.4,4.5,7.6c0.1,2.4-0.8,4.8-2.5,6.6
					c-2,1.9-4.6,3-7.4,3.1v4.5h-4.1v-4.6c-5-0.2-9.2-3.9-9.9-8.7l6.3-1.5c0.1,1.4,0.7,2.7,1.8,3.7c1.1,0.9,2.5,1.4,4,1.3
					c1.2,0.1,2.5-0.3,3.4-1.1c0.7-0.7,1.1-1.6,1.1-2.6C86.7,86.7,86.3,85.8,85.5,85.3L85.5,85.3z M137.9,50.4h-75
					c-5,0.1-9,4-8.9,8.7v83.7c0,4.8,4,8.7,8.9,8.7h74.9c5-0.1,9-4,8.9-8.8V59.2c0-2.3-0.9-4.5-2.6-6.2
					C142.5,51.4,140.3,50.4,137.9,50.4z"/>
			</g>
			<g>
				<g>
					<defs>
						<path id="SVGID_4_" d="M130.3,73.6h-22.4v-7.9h22.4V73.6z M130.3,94.3h-28.6v-7.9h28.6V94.3z M130.3,114.9H68.6V107h61.8
							L130.3,114.9L130.3,114.9z M68.6,135.4l-0.2-7.8h61.8l0.2,7.9L68.6,135.4z M85.5,85.3c-1.5-0.9-3.1-1.6-4.8-2
							c-1.8-0.6-3.6-1.3-5.3-2.2c-1.3-0.7-2.3-1.7-3.1-3c-0.8-1.4-1.2-2.9-1.2-4.5c0-2.2,0.7-4.3,2.1-6c1.7-1.9,4.1-3.1,6.6-3.3
							v-3.5h4.1v3.6c4.3,0.3,7.9,3.2,8.9,7.2l-5.6,2.1c-1.1-2.9-2.8-4.4-5-4.4c-1,0-2,0.3-2.8,1c-0.7,0.6-1.1,1.5-1.1,2.4
							c-0.1,0.8,0.3,1.7,1,2.2c1.3,0.8,2.8,1.4,4.3,1.9c2,0.7,3.9,1.5,5.7,2.4c2.9,1.5,4.6,4.4,4.5,7.6c0.1,2.4-0.8,4.8-2.5,6.6
							c-2,1.9-4.6,3-7.4,3.1v4.5h-4.1v-4.6c-5-0.2-9.2-3.9-9.9-8.7l6.3-1.5c0.1,1.4,0.7,2.7,1.8,3.7c1.1,0.9,2.5,1.4,4,1.3
							c1.2,0.1,2.5-0.3,3.4-1.1c0.7-0.7,1.1-1.6,1.1-2.6C86.7,86.7,86.3,85.8,85.5,85.3L85.5,85.3z M137.9,50.4h-75
							c-5,0.1-9,4-8.9,8.7v83.7c0,4.8,4,8.7,8.9,8.7h74.9c5-0.1,9-4,8.9-8.8V59.2c0-2.3-0.9-4.5-2.6-6.2
							C142.5,51.4,140.3,50.4,137.9,50.4z"/>
					</defs>
					<clipPath id="SVGID_5_">
						<use xlink:href="#SVGID_4_"  style="overflow:visible;"/>
					</clipPath>
					<rect x="49" y="45.4" class="st4" width="102.8" height="111.1"/>
				</g>
			</g>
		</g>
	</g>
</g>
<path id="SVGID_1_" class="st3" d="M130.3,73.6h-22.4v-7.9h22.4V73.6z M130.3,94.3h-28.6v-7.9h28.6V94.3z M130.3,114.9H68.6V107
	h61.8L130.3,114.9L130.3,114.9z M68.6,135.4l-0.2-7.8h61.8l0.2,7.9L68.6,135.4z M85.5,85.3c-1.5-0.9-3.1-1.6-4.8-2
	c-1.8-0.6-3.6-1.3-5.3-2.2c-1.3-0.7-2.3-1.7-3.1-3c-0.8-1.4-1.2-2.9-1.2-4.5c0-2.2,0.7-4.3,2.1-6c1.7-1.9,4.1-3.1,6.6-3.3v-3.5h4.1
	v3.6c4.3,0.3,7.9,3.2,8.9,7.2l-5.6,2.1c-1.1-2.9-2.8-4.4-5-4.4c-1,0-2,0.3-2.8,1c-0.7,0.6-1.1,1.5-1.1,2.4c-0.1,0.8,0.3,1.7,1,2.2
	c1.3,0.8,2.8,1.4,4.3,1.9c2,0.7,3.9,1.5,5.7,2.4c2.9,1.5,4.6,4.4,4.5,7.6c0.1,2.4-0.8,4.8-2.5,6.6c-2,1.9-4.6,3-7.4,3.1v4.5h-4.1
	v-4.6c-5-0.2-9.2-3.9-9.9-8.7l6.3-1.5c0.1,1.4,0.7,2.7,1.8,3.7c1.1,0.9,2.5,1.4,4,1.3c1.2,0.1,2.5-0.3,3.4-1.1
	c0.7-0.7,1.1-1.6,1.1-2.6C86.7,86.7,86.3,85.8,85.5,85.3L85.5,85.3z M137.9,50.4h-75c-5,0.1-9,4-8.9,8.7v83.7c0,4.8,4,8.7,8.9,8.7
	h74.9c5-0.1,9-4,8.9-8.8V59.2c0-2.3-0.9-4.5-2.6-6.2C142.5,51.4,140.3,50.4,137.9,50.4z"/>
</svg>
