<?xml version="1.0" encoding="utf-8"?>
<!-- Generator: Adobe Illustrator 22.0.0, SVG Export Plug-In . SVG Version: 6.00 Build 0)  -->
<svg version="1.1" id="图层_1" xmlns="http://www.w3.org/2000/svg" xmlns:xlink="http://www.w3.org/1999/xlink" x="0px" y="0px"
	 viewBox="0 0 200 200" style="enable-background:new 0 0 200 200;" xml:space="preserve">
<style type="text/css">
	.st0{fill:#A6CB50;}
	.st1{fill:#FFFFFF;}
</style>
<path class="st0" d="M0,99.7c0,55.2,44.8,100,100,100s100-44.8,100-100s-44.8-100-100-100S0,44.5,0,99.7z"/>
<path id="SVGID_1_" class="st1" d="M56.6,111.4c-2.6,0-4.7,2-4.7,4.4v25.9c0,2.4,2.1,4.4,4.7,4.4h27.7c2.6,0,4.7-2,4.7-4.4v-26
	c0-2.4-2.1-4.4-4.7-4.4H56.6V111.4z M84.3,155.2H56.6c-7.7,0-13.9-5.7-13.9-12.7V117c0-7,6.2-12.7,13.9-12.7h27.8
	c7.7,0,13.9,5.7,13.9,12.7v25.4C98.4,149.6,92,155.2,84.3,155.2z M56.6,53.6c-2.6,0-4.7,2-4.7,4.4v25.9c0,2.4,2.1,4.4,4.7,4.4h27.7
	c2.6,0,4.7-2,4.7-4.4v-26c0-2.4-2.1-4.4-4.7-4.4L56.6,53.6z M84.3,95.1H56.6c-7.7,0-13.9-5.8-13.9-12.7V56.9c0-7,6.2-12.7,13.9-12.7
	h27.8c7.7,0,13.9,5.7,13.9,12.7v25.4C98.4,89.3,92,95.1,84.3,95.1z M139.7,143.7h-25.1c-2.6,0-4.8-2.1-4.8-4.6s2.2-4.6,4.8-4.6h25.1
	c2.6,0,4.8,2.1,4.8,4.6C144.5,141.6,142.3,143.7,139.7,143.7z M156.2,120.5h-41.7c-2.6,0-4.7-2.1-4.7-4.6s2.1-4.6,4.7-4.6H156
	c2.6,0,4.7,2.1,4.7,4.6C160.8,118.6,158.7,120.5,156.2,120.5z M139.7,88.1h-25.1c-2.6,0-4.8-2.1-4.8-4.6s2.2-4.6,4.8-4.6h25.1
	c2.6,0,4.8,2.1,4.8,4.6C144.5,86.2,142.3,88.1,139.7,88.1z M156.2,65h-41.7c-2.6,0-4.7-2.1-4.7-4.6s2.1-4.6,4.7-4.6H156
	c2.6,0,4.7,2.1,4.7,4.6C160.8,62.9,158.7,65,156.2,65z"/>
</svg>
