<?xml version="1.0" encoding="utf-8"?>
<!-- Generator: Adobe Illustrator 22.0.0, SVG Export Plug-In . SVG Version: 6.00 Build 0)  -->
<svg version="1.1" id="图层_1" xmlns="http://www.w3.org/2000/svg" xmlns:xlink="http://www.w3.org/1999/xlink" x="0px" y="0px"
	 viewBox="0 0 48 48" style="enable-background:new 0 0 48 48;" xml:space="preserve">
<style type="text/css">
	.st0{clip-path:url(#SVGID_2_);fill:#515151;}
	.st1{stroke:#000000;stroke-miterlimit:10;}
	.st2{clip-path:url(#SVGID_4_);}
	.st3{clip-path:url(#SVGID_6_);}
</style>
<g>
	<defs>
		<path id="SVGID_1_" d="M36.4,34.7l6.1-8.2c0.3-0.3,0.8-0.4,1.1-0.2c0.4,0.3,0.4,0.8,0.2,1.1l-6.6,8.9V44c0,0.5-0.4,0.8-0.8,0.8
			c-0.4,0-0.8-0.3-0.8-0.8v-7.7l-1.1-1.4l-4.2,0.2c-0.4,0-0.8-0.3-0.8-0.8c0-0.4,0.4-0.8,0.8-0.8l3.1-0.1l-4.4-5.9
			c-0.2-0.4-0.2-0.9,0.2-1.1c0.4-0.2,0.8-0.2,1.1,0.2l5.1,6.8c0.3,0.1,0.4,0.3,0.5,0.6L36.4,34.7z M42.5,34.9h-4.8
			c-0.4,0-0.8-0.3-0.8-0.8c0-0.4,0.4-0.8,0.8-0.8h4.8c0.4,0,0.8,0.3,0.8,0.8C43.3,34.5,43,34.9,42.5,34.9z M42.5,40.1l-12.2,0.2
			c-0.4,0-0.8-0.3-0.8-0.8s0.4-0.8,0.8-0.8l12.2-0.2c0.4,0,0.8,0.3,0.8,0.8S43,40.1,42.5,40.1z"/>
	</defs>
	<clipPath id="SVGID_2_">
		<use xlink:href="#SVGID_1_"  style="overflow:visible;"/>
	</clipPath>
	<rect x="23.8" y="21.2" class="st0" width="25.2" height="28.7"/>
</g>
<path class="st1" d="M36.4,34.7l6.1-8.2c0.3-0.3,0.8-0.4,1.1-0.2c0.4,0.3,0.4,0.8,0.2,1.1l-6.6,8.9V44c0,0.5-0.4,0.8-0.8,0.8
	c-0.4,0-0.8-0.3-0.8-0.8v-7.7l-1.1-1.4l-4.2,0.2c-0.4,0-0.8-0.3-0.8-0.8c0-0.4,0.4-0.8,0.8-0.8l3.1-0.1l-4.4-5.9
	c-0.2-0.4-0.2-0.9,0.2-1.1c0.4-0.2,0.8-0.2,1.1,0.2l5.1,6.8c0.3,0.1,0.4,0.3,0.5,0.6L36.4,34.7z M42.5,34.9h-4.8
	c-0.4,0-0.8-0.3-0.8-0.8c0-0.4,0.4-0.8,0.8-0.8h4.8c0.4,0,0.8,0.3,0.8,0.8C43.3,34.5,43,34.9,42.5,34.9z M42.5,40.1l-12.2,0.2
	c-0.4,0-0.8-0.3-0.8-0.8c0-0.5,0.4-0.8,0.8-0.8l12.2-0.2c0.4,0,0.8,0.3,0.8,0.8S43,40.1,42.5,40.1z"/>
<g>
	<defs>
		<path id="SVGID_3_" d="M4.1,43.3C4,42.8,4,42.3,4,41.8c0-9.7,8.1-17.6,18-17.6c5,0,4.1,3.1-0.1,3.1c-8.1,0-14.8,6.6-14.8,14.5
			c0,0.3,0,0.7,0.1,1c0.1,0.8-0.4,1.7-1.3,1.8H5.7C4.9,44.6,4.2,44.1,4.1,43.3z"/>
	</defs>
	<use xlink:href="#SVGID_3_"  style="overflow:visible;"/>
	<clipPath id="SVGID_4_">
		<use xlink:href="#SVGID_3_"  style="overflow:visible;"/>
	</clipPath>
	<rect x="-1" y="19.2" class="st2" width="31.4" height="30.4"/>
</g>
<g>
	<defs>
		<path id="SVGID_5_" d="M23.4,6.2c-4.6,0-8.4,3.7-8.4,8.2c0,4.5,3.8,8.2,8.4,8.2c4.6,0,8.4-3.7,8.4-8.2S28,6.2,23.4,6.2z
			 M23.4,25.7c-6.4,0-11.6-5-11.6-11.3S17,3.2,23.4,3.2c6.4,0,11.6,5,11.6,11.3S29.8,25.7,23.4,25.7z"/>
	</defs>
	<use xlink:href="#SVGID_5_"  style="overflow:visible;"/>
	<clipPath id="SVGID_6_">
		<use xlink:href="#SVGID_5_"  style="overflow:visible;"/>
	</clipPath>
	<rect x="6.8" y="-1.8" class="st3" width="33.1" height="32.6"/>
</g>
</svg>
