<?xml version="1.0" encoding="utf-8"?>
<!-- Generator: Adobe Illustrator 22.0.0, SVG Export Plug-In . SVG Version: 6.00 Build 0)  -->
<svg version="1.1" id="图层_1" xmlns="http://www.w3.org/2000/svg" xmlns:xlink="http://www.w3.org/1999/xlink" x="0px" y="0px"
	 viewBox="0 0 200 200" style="enable-background:new 0 0 200 200;" xml:space="preserve">
<style type="text/css">
	.st0{fill:#F26D64;}
	.st1{fill:#FFFFFF;}
</style>
<path class="st0" d="M0,100c0,55.2,44.8,100,100,100s100-44.8,100-100S155.2,0,100,0S0,44.8,0,100z"/>
<g>
	<path class="st1" d="M56.9,148H159v6H56.9V148z"/>
	<polygon class="st1" points="98.9,95.4 98.9,75.9 68.9,75.9 68.9,111.1 92,90.3 	"/>
	<path class="st1" d="M68.9,117.3V148h30v-47.5l-6.6-4.9C92.3,95.7,75.9,110.8,68.9,117.3z"/>
	<rect x="50.9" y="45.9" class="st1" width="6" height="108.1"/>
	<polygon class="st1" points="123.7,118.7 110.9,109.3 110.9,148 141,148 141,102.1 	"/>
	<polygon class="st1" points="141,96.2 141,57.9 110.9,57.9 110.9,104.2 123.3,113.3 	"/>
</g>
</svg>
