<?xml version="1.0" encoding="utf-8"?>
<!-- Generator: Adobe Illustrator 22.0.0, SVG Export Plug-In . SVG Version: 6.00 Build 0)  -->
<svg version="1.1" id="图层_1" xmlns="http://www.w3.org/2000/svg" xmlns:xlink="http://www.w3.org/1999/xlink" x="0px" y="0px"
	 viewBox="0 0 130 130" style="enable-background:new 0 0 130 130;" xml:space="preserve">
<style type="text/css">
	.st0{clip-path:url(#SVGID_2_);}
</style>
<g>
	<defs>
		<path id="SVGID_1_" d="M128.7,98.5c0-2.8-2.3-5.1-5.1-5.1h-12.9c-2.8,0-5.1,2.3-5.1,5.1c0,2.8,2.3,5.1,5.1,5.1h12.9
			C126.4,103.6,128.7,101.3,128.7,98.5z M24.9,21.6c0-3.2-2.6-5.9-5.9-5.9c-3.2,0-5.9,2.6-5.9,5.9v88c0,3.2,2.6,5.9,5.9,5.9
			c3.2,0,5.9-2.6,5.9-5.9V21.6L24.9,21.6z M116.7,108.9v9.9c0,6.8-5.5,12.2-12.2,12.2H15c-6.8,0-12.2-5.5-12.2-12.2V12.6
			C2.7,5.8,8.2,0.3,15,0.3h89.5c6.8,0,12.2,5.5,12.2,12.2v9.9h-5.5c-5.6,0.2-10.1,4.8-10.1,10.4c0,5.6,4.5,10.2,10.1,10.4h5.5v12
			h-5.5c-5.6,0.2-10,4.8-10,10.4c0,5.6,4.4,10.2,10,10.4h5.5v12.1h-5.5c-5.6,0.2-10.1,4.8-10.1,10.4s4.5,10.2,10.1,10.4L116.7,108.9
			L116.7,108.9z M128.7,65.6c0-2.8-2.3-5.1-5.1-5.1h-12.9c-2.8,0-5.1,2.3-5.1,5.1c0,2.8,2.3,5.1,5.1,5.1h12.9
			C126.4,70.8,128.7,68.5,128.7,65.6z M123.6,38h-13c-2.8,0-5.1-2.3-5.1-5.1c0-2.8,2.3-5.1,5.1-5.1h12.9c2.8,0,5.1,2.3,5.2,5.1
			C128.7,35.7,126.4,38,123.6,38z"/>
	</defs>
	<clipPath id="SVGID_2_">
		<use xlink:href="#SVGID_1_"  style="overflow:visible;"/>
	</clipPath>
	<rect x="-2.2" y="-4.5" class="st0" width="135.7" height="140.4"/>
</g>
</svg>
