<?xml version="1.0" encoding="utf-8"?>
<!-- Generator: Adobe Illustrator 22.0.0, SVG Export Plug-In . SVG Version: 6.00 Build 0)  -->
<svg version="1.1" id="图层_1" xmlns="http://www.w3.org/2000/svg" xmlns:xlink="http://www.w3.org/1999/xlink" x="0px" y="0px"
	 viewBox="0 0 200 200" style="enable-background:new 0 0 200 200;" xml:space="preserve">
<style type="text/css">
	.st0{fill:#6499FE;}
	.st1{fill:#FFFFFF;}
</style>
<path class="st0" d="M0,99.8c0,55.2,44.8,100,100,100s100-44.8,100-100s-44.8-100-100-100S0,44.6,0,99.8z"/>
<path class="st1" d="M59.2,110.9l46.9,27.1c1.4,0.9,3.1,1.4,4.5,1.4c3.2,0,5.9-1.8,7.7-4.5c2.2-4.1,0.9-9.5-3.1-11.8
	c-2.2-1.8-4.1-4.5-4-7.2c0-1.8,0.4-3.6,1.3-5l-32-18.5c-1,1.5-2.4,2.8-4.1,3.6c-1.1,0.6-2.4,0.9-3.6,0.9c-1.6,0-3.2-0.4-4.5-1.4
	c-1.4-0.9-2.9-1.3-4.5-1.4c-3.2,0-5.9,1.8-7.7,4.5c-1.4,1.8-1.4,4.5-0.9,6.8C55.7,107.7,57,109.5,59.2,110.9L59.2,110.9z M129.2,146
	H48c-2.5,0.2-4.4,2.4-4.2,4.8c0.2,2.2,1.9,4,4.2,4.2h81.2c2.3,0,4.5-1.8,4.5-4.5C133.7,147.8,131.9,146,129.2,146L129.2,146z
	 M127.9,46.3c-10.8-6.2-24.5-2.5-30.7,8.2c-2.6,4.5-3.5,9.7-2.7,14.8c1.4,8.1-2.1,16.2-8.8,20.9l25.3,14.6c0.2-3,1.2-6,2.8-8.8
	c2.5-4.4,6.5-7.6,10.9-9.2c11.6-4.4,17.4-17.4,13-29C135.8,52.9,132.3,48.9,127.9,46.3L127.9,46.3z M125.4,55.9
	c-0.7,1.2-2.3,1.7-3.6,0.9c-4.9-2.9-11.3-1.3-14.2,3.7c-0.6,1.3-2.2,1.9-3.5,1.3c-1.3-0.6-1.9-2.2-1.3-3.5c0.1-0.1,0.1-0.3,0.2-0.4
	c4.4-7.4,13.9-9.9,21.4-5.6C125.6,53,126.1,54.6,125.4,55.9z"/>
</svg>
