<?xml version="1.0" encoding="utf-8"?>
<!-- Generator: Adobe Illustrator 22.0.0, SVG Export Plug-In . SVG Version: 6.00 Build 0)  -->
<svg version="1.1" id="图层_1" xmlns="http://www.w3.org/2000/svg" xmlns:xlink="http://www.w3.org/1999/xlink" x="0px" y="0px"
	 viewBox="0 0 130 130" style="enable-background:new 0 0 130 130;" xml:space="preserve">
<style type="text/css">
	.st0{fill:none;}
</style>
<path class="st0" d="M23.8,37.9c3.2,0,5.9-2.5,5.9-5.8c-0.1-3.2-2.7-5.8-5.9-5.6c-2.1-0.1-4.2,0.9-5.3,2.8c-1.1,1.8-1.1,4,0,5.8
	C19.5,37,21.5,38.1,23.8,37.9z"/>
<path class="st0" d="M23.8,51.1c-3.3-0.1-5.9,2.5-6,5.8c0,3.3,2.7,5.9,6,5.8c3.3,0.1,6-2.5,6-5.8C29.6,53.6,26.9,51.1,23.8,51.1z"/>
<path class="st0" d="M23.8,75.9c-3.3-0.1-5.9,2.5-6,5.8c0,3.1,2.7,5.6,6,5.6c3.3,0.1,6-2.5,6-5.8C29.6,78.3,26.9,75.8,23.8,75.9z"/>
<path class="st0" d="M85.1,28.8h18.7L80.6,6.9v17.6c0,1.2,0.5,2.2,1.3,3.1C82.8,28.3,84,28.8,85.1,28.8z"/>
<path class="st0" d="M38.6,34.6h29.3c1.4,0,2.6-1.1,2.6-2.5s-1.2-2.5-2.6-2.5H38.6c-1.4,0-2.6,1.1-2.6,2.5
	C36,33.6,37.2,34.6,38.6,34.6z"/>
<path class="st0" d="M38.6,59.4h29.3c1.4,0,2.6-1.1,2.6-2.5s-1.2-2.5-2.6-2.5H38.6c-1.4,0-2.6,1.1-2.6,2.5S37.2,59.4,38.6,59.4z"/>
<path class="st0" d="M49.5,79.1H38.6c-1.4,0-2.6,1.1-2.6,2.5c0,1.4,1.2,2.5,2.6,2.5h10.9c1.4,0,2.6-1.1,2.6-2.5
	C52.1,80.2,50.9,79.1,49.5,79.1z"/>
<path d="M24.1,80.7l56,32.4c1.7,1.1,3.7,1.7,5.4,1.7c3.8,0,7-2.1,9.2-5.4c2.6-4.9,1.1-11.3-3.7-14.1c-2.6-2.1-4.9-5.4-4.8-8.6
	c0-2.1,0.5-4.3,1.6-6L49.5,58.6c-1.2,1.8-2.9,3.3-4.9,4.3c-1.3,0.7-2.9,1.1-4.3,1.1c-1.9,0-3.8-0.5-5.4-1.7
	c-1.7-1.1-3.5-1.6-5.4-1.7c-3.8,0-7,2.1-9.2,5.4c-1.7,2.1-1.7,5.4-1.1,8.1C19.9,76.9,21.4,79.1,24.1,80.7L24.1,80.7z"/>
<path d="M118.7,119.3H8.1c-3.4,0.2-6,2.9-5.7,5.7c0.3,2.6,2.6,4.8,5.7,5h110.6c3.1,0,6.1-2.1,6.1-5.4
	C124.9,121.4,122.4,119.3,118.7,119.3L118.7,119.3z"/>
<path d="M117.8,17.3c-2.3-5.9-6.4-10.6-11.7-13.7c-12.9-7.4-29.3-3-36.7,9.8c-3.1,5.4-4.2,11.6-3.2,17.7c1.7,9.7-2.5,19.3-10.5,25
	l30.2,17.4c0.2-3.6,1.4-7.2,3.3-10.5c3-5.3,7.8-9.1,13-11C116.1,46.7,123.1,31.2,117.8,17.3z M103.1,15.1c-0.8,1.4-2.7,2-4.3,1.1
	c-5.9-3.5-13.5-1.6-17,4.4c-0.7,1.6-2.6,2.3-4.2,1.6c-1.6-0.7-2.3-2.6-1.6-4.2c0.1-0.1,0.1-0.4,0.2-0.5c5.3-8.8,16.6-11.8,25.6-6.7
	C103.4,11.6,103.9,13.5,103.1,15.1z"/>
</svg>
