<?xml version="1.0" encoding="utf-8"?>
<!-- Generator: Adobe Illustrator 22.0.0, SVG Export Plug-In . SVG Version: 6.00 Build 0)  -->
<svg version="1.1" id="图层_1" xmlns="http://www.w3.org/2000/svg" xmlns:xlink="http://www.w3.org/1999/xlink" x="0px" y="0px"
	 viewBox="0 0 200 200" style="enable-background:new 0 0 200 200;" xml:space="preserve">
<style type="text/css">
	.st0{fill:#67C8B5;}
	.st1{fill:#FFFFFF;}
</style>
<path class="st0" d="M0,99.7c0,55.2,44.8,100,100,100s100-44.8,100-100s-44.8-100-100-100S0,44.5,0,99.7z"/>
<g>
	<path class="st1" d="M47.1,123.7c-12.6-16.2,10.4-28.4,24.8-30.4c-4.6-3.3-7.9-9.5-8.4-16.7c-3.6-1.2-3.3-6.5,0.4-7.3
		c1.8-9.1,8.2-15.9,15.8-16c-2.2,3.4-3.8,7.3-4.8,11.6c-3.7,1.5-5.5,5.7-4,9.4c0.6,1.6,1.8,2.8,3.2,3.7c0.8,8,4,16.1,9.8,21.8
		C70.3,102.5,52.5,109.9,47.1,123.7L47.1,123.7z"/>
	<path class="st1" d="M106,101L106,101c9.5-6.9,13.2-12.6,14.1-24.9c4.8-1.7,4.5-6.2-0.5-7.3c-5.6-28.4-34.7-28.4-40.3,0
		c-5,1.1-5.2,5.6-0.4,7.3c0.9,12.2,4.6,18,14.1,24.9c-14.5,2-40.1,8.9-40.1,27.5c0,20.2,30.9,27.7,46.6,27.7s46.6-7.5,46.6-27.7
		C146.1,109.9,120.5,103,106,101z"/>
	<path class="st1" d="M119.4,53.4c7.6,0.1,14,6.9,15.8,16c3.7,0.8,4,6,0.4,7.3c-0.5,7.2-3.8,13.3-8.4,16.7
		c14.4,2,37.4,14.2,24.8,30.4c-5.4-13.9-23.2-21.2-36.8-23.8c5.8-5.7,9-13.8,9.8-21.8c3.5-1.9,4.8-6.4,2.8-9.9
		c-0.8-1.5-2.1-2.6-3.7-3.2C123.2,60.9,121.6,56.9,119.4,53.4L119.4,53.4z"/>
</g>
</svg>
