<?xml version="1.0" encoding="utf-8"?>
<!-- Generator: Adobe Illustrator 22.0.0, SVG Export Plug-In . SVG Version: 6.00 Build 0)  -->
<svg version="1.1" id="图层_1" xmlns="http://www.w3.org/2000/svg" xmlns:xlink="http://www.w3.org/1999/xlink" x="0px" y="0px"
	 viewBox="0 0 200 200" style="enable-background:new 0 0 200 200;" xml:space="preserve">
<style type="text/css">
	.st0{fill:none;stroke:#FFFFFF;stroke-width:8;stroke-miterlimit:10;}
	.st1{fill:none;stroke:#FFFFFF;stroke-width:8;stroke-linecap:round;stroke-miterlimit:10;}
	.st2{fill:#67C8B5;}
	.st3{fill:#FFFFFF;}
</style>
<g>
	<path class="st0" d="M127.7,71H141c3.8,0,6.9,2.1,6.9,4.7v71.2c0,2.6-3.1,4.7-6.9,4.7H59.6c-3.8,0-6.9-2.1-6.9-4.7V75.7
		c0-2.6,3.1-4.7,6.9-4.7h11.7"/>
	<line class="st0" x1="87.8" y1="71" x2="107.7" y2="71"/>
	<line class="st0" x1="54.7" y1="86.8" x2="148" y2="86.8"/>
	<line class="st1" x1="66.7" y1="99.8" x2="75" y2="99.8"/>
	<line class="st1" x1="66.7" y1="112.1" x2="75" y2="112.1"/>
	<line class="st1" x1="66.7" y1="124.7" x2="75" y2="124.7"/>
	<line class="st1" x1="66.7" y1="137.1" x2="75" y2="137.1"/>
	<line class="st1" x1="93.6" y1="99.8" x2="101.9" y2="99.8"/>
	<line class="st1" x1="93.6" y1="112.1" x2="101.9" y2="112.1"/>
	<line class="st1" x1="93.6" y1="124.7" x2="101.9" y2="124.7"/>
	<line class="st1" x1="93.6" y1="137.1" x2="101.9" y2="137.1"/>
	<line class="st1" x1="118.9" y1="99.8" x2="127.2" y2="99.8"/>
	<line class="st1" x1="118.9" y1="112.1" x2="127.2" y2="112.1"/>
	<line class="st1" x1="118.9" y1="124.7" x2="127.2" y2="124.7"/>
	<line class="st1" x1="118.9" y1="137.1" x2="127.2" y2="137.1"/>
	<rect x="76.7" y="51" class="st0" width="12.5" height="26.9"/>
	<rect x="114.7" y="51" class="st0" width="12.5" height="26.9"/>
	<path class="st0" d="M114.6,71"/>
</g>
<path class="st2" d="M1,99.7c0,55.2,44.8,100,100,100s100-44.8,100-100s-44.8-100-100-100S1,44.5,1,99.7z"/>
<g>
	<path class="st3" d="M115.5,124.3c-1.4,1.3-2.1,3.1-2.1,5c0,2.4,1.5,4,2.5,4.9l11.3,12.6l0.1,0.1l0,0c0.6,0.5,1.7,1.7,3.7,1.7
		c2.9,0,5-2.2,5-5v-4.8c4.8,0.5,8.4,3.1,11.6,8.2c1,1.8,2.4,2.7,4.2,2.7c2.4,0,5-2.1,5-5c0-0.1,0-0.2,0-0.3c0-0.2-0.1-0.6-0.1-1
		c-0.2-2.7-0.6-8.4-3.7-13.5c-1.8-2.9-4.2-5.4-7.2-7.1c-2.8-1.6-6.1-2.7-9.9-3.2v-3.9c0-1.4-0.6-2.8-1.6-3.8s-2.4-1.6-3.8-1.6
		c-2.1,0-3.3,1.2-3.8,1.7l-0.1,0.1L115.5,124.3z M119.4,129.2c0-0.2,0.1-0.5,0.3-0.6c0.1-0.1,0.1-0.1,0.2-0.2l10.4-11.3v5.1
		c0,1.6,1.2,2.9,2.8,3c13,0.8,16.6,8.2,17.7,15.6c-1.8-2.3-3.8-4-6-5.3c-3.4-2-7.3-2.9-11.6-2.6c-1.6,0.1-2.8,1.4-2.8,3v5.4l-9.9-11
		l-0.1-0.1C119.9,129.9,119.5,129.4,119.4,129.2L119.4,129.2z M105.2,145.1h-6.5c-2.5,0-3.1,0.5-3.1,3.1v6.6c0,2.5,0.5,3.1,3.1,3.1
		h6.5c2.5,0,3.1-0.5,3.1-3.1v-6.6C108.1,145.6,107.6,145.1,105.2,145.1L105.2,145.1z M83.7,145.1h-6.5c-2.5,0-3.1,0.5-3.1,3.1v6.6
		c0,2.5,0.5,3.1,3.1,3.1h6.5c2.5,0,3.1-0.5,3.1-3.1v-6.6C86.6,145.6,86,145.1,83.7,145.1L83.7,145.1z M83.7,122.1h-6.5
		c-2.5,0-3.1,0.5-3.1,3.1v6.5c0,2.5,0.5,3.1,3.1,3.1h6.5c2.5,0,3.1-0.5,3.1-3.1v-6.6C86.6,122.6,86,122.1,83.7,122.1z M98.8,100.3
		c-2.5,0-3.1,0.5-3.1,3.1v6.6c0,2.5,0.5,3.1,3.1,3.1h6.5c2.5,0,3.1-0.5,3.1-3.1v-6.6c-0.2-2.5-0.7-3.1-3.1-3.1H98.8z M105.2,122.1
		h-6.5c-2.5,0-3.1,0.5-3.1,3.1v6.5c0,2.5,0.5,3.1,3.1,3.1h6.5c2.5,0,3.1-0.5,3.1-3.1v-6.6C108.1,122.6,107.6,122.1,105.2,122.1z
		 M83.7,100.3h-6.5c-2.5,0-3.1,0.5-3.1,3.1v6.6c0,2.5,0.5,3.1,3.1,3.1h6.5c2.5,0,3.1-0.5,3.1-3.1v-6.6
		C86.6,100.7,86,100.3,83.7,100.3z"/>
	<path class="st3" d="M151.4,92.6c1.5,1.2,3.7,1,4.9-0.6c1.2-1.5,1-3.7-0.6-4.9c-0.1,0-0.1-0.1-0.2-0.1l-51.4-38.5
		c-1.2-0.9-3-0.9-4.2,0L48.5,87c-1.6,1.2-1.9,3.4-0.7,4.9s3.4,1.9,4.9,0.7l5-3.7v65.4c0,1.9,1.6,3.5,3.5,3.5s3.5-1.6,3.5-3.5l0,0
		V83.6l37.4-27.9L151.4,92.6z"/>
</g>
</svg>
