<?xml version="1.0" encoding="utf-8"?>
<!-- Generator: Adobe Illustrator 22.0.0, SVG Export Plug-In . SVG Version: 6.00 Build 0)  -->
<svg version="1.1" id="图层_1" xmlns="http://www.w3.org/2000/svg" xmlns:xlink="http://www.w3.org/1999/xlink" x="0px" y="0px"
	 viewBox="0 0 130 130" style="enable-background:new 0 0 130 130;" xml:space="preserve">
<path d="M17.5,33.4l-3.4-1.6c-0.1,0.2-0.2,0.6-0.3,0.8c0,0.1-4.4,8.8-6.6,22.2C4.3,72.6,6.6,90,13.9,106.2c0.9,1.9,0.2,4.4-1.5,5.5
	c-0.6,0.3-1,0.5-1.6,0.5c-1.3,0-2.4-0.8-3.1-2.2c-4.4-9.9-7.2-20.4-8.2-31C-1.2,70.4-1,61.6,0.5,53c2.2-13.3,6.3-22.3,7.3-24.1
	l-3.6-1.7c-1.9-0.9-2.2-3.9-0.6-5.2l11.1-9.2c1.6-1.3,3.6-0.2,4,1.9L21,30.1C21.4,32.5,19.3,34.4,17.5,33.4L17.5,33.4z"/>
<path d="M95.6,125.5H32.2c-2.1,0-3.7-2-3.7-4.4s1.7-4.4,3.7-4.4h63.4c2.1,0,3.7,2,3.7,4.4S97.7,125.5,95.6,125.5z"/>
<path d="M96.6,88.1H33.4c-2.1,0-3.7-2-3.7-4.4c0-2.4,1.7-4.4,3.7-4.4h63.4c2.1,0,3.7,2,3.7,4.4C100.5,86.1,98.7,88.1,96.6,88.1z"/>
<path d="M96.6,50.6H33.4c-2.1,0-3.7-2-3.7-4.4s1.7-4.4,3.7-4.4h63.4c2.1,0,3.7,2,3.7,4.4S98.7,50.6,96.6,50.6z"/>
<path d="M96.6,13.2H33.4c-2.1,0-3.7-2-3.7-4.4s1.7-4.4,3.7-4.4h63.4c2.1,0,3.7,2,3.7,4.4S98.7,13.2,96.6,13.2z"/>
<path d="M129.6,77.9c-2.2,13.3-6.3,22.3-7.3,24.1l3.6,1.7c1.9,0.9,2.2,3.9,0.6,5.2l-11.1,9.2c-1.6,1.3-3.6,0.2-4-1.9l-2.4-15.7
	c-0.3-2.3,1.6-4.2,3.5-3.3l3.4,1.6c0.1-0.2,0.2-0.6,0.3-0.8c0.1-0.2,4.4-8.9,6.6-22.2c2.8-17.7,0.6-35.1-6.7-51.4
	c-0.9-1.9-0.2-4.4,1.5-5.5c1.7-1,3.8-0.2,4.7,1.7c4.4,9.9,7.2,20.4,8.2,31C131.3,60.5,131.1,69.3,129.6,77.9L129.6,77.9z"/>
</svg>
