<?xml version="1.0" encoding="utf-8"?>
<!-- Generator: Adobe Illustrator 22.0.0, SVG Export Plug-In . SVG Version: 6.00 Build 0)  -->
<svg version="1.1" id="图层_1" xmlns="http://www.w3.org/2000/svg" xmlns:xlink="http://www.w3.org/1999/xlink" x="0px" y="0px"
	 viewBox="0 0 200 200" style="enable-background:new 0 0 200 200;" xml:space="preserve">
<style type="text/css">
	.st0{fill:#67C8B5;}
	.st1{fill:#FFFFFF;}
</style>
<path class="st0" d="M0,100c0,55.2,44.8,100,100,100s100-44.8,100-100S155.2,0,100,0S0,44.8,0,100z"/>
<g>
	<path class="st1" d="M59.3,75.9l-3-1.4c-0.1,0.2-0.2,0.5-0.3,0.7c0,0.1-3.9,7.7-5.8,19.5c-2.5,15.6-0.5,30.9,5.9,45.2
		c0.8,1.7,0.2,3.9-1.3,4.8c-0.5,0.3-0.9,0.4-1.4,0.4c-1.1,0-2.1-0.7-2.7-1.9c-3.9-8.7-6.3-17.9-7.2-27.3c-0.7-7.5-0.5-15.2,0.8-22.8
		c1.9-11.7,5.5-19.6,6.4-21.2l-3.2-1.5c-1.7-0.8-1.9-3.4-0.5-4.6l9.8-8.1c1.4-1.1,3.2-0.2,3.5,1.7L62.4,73
		C62.7,75.1,60.9,76.7,59.3,75.9L59.3,75.9z"/>
	<path class="st1" d="M125.5,152.1H74.8c-1.7,0-3-1.6-3-3.5c0-1.9,1.4-3.5,3-3.5h50.7c1.7,0,3,1.6,3,3.5
		C128.5,150.5,127.2,152.1,125.5,152.1z"/>
	<path class="st1" d="M126.3,122.1H75.7c-1.7,0-3-1.6-3-3.5s1.4-3.5,3-3.5h50.7c1.7,0,3,1.6,3,3.5S128,122.1,126.3,122.1z"/>
	<path class="st1" d="M126.3,92.1H75.7c-1.7,0-3-1.6-3-3.5s1.4-3.5,3-3.5h50.7c1.7,0,3,1.6,3,3.5S128,92.1,126.3,92.1z"/>
	<path class="st1" d="M126.3,62.2H75.7c-1.7,0-3-1.6-3-3.5c0-1.9,1.4-3.5,3-3.5h50.7c1.7,0,3,1.6,3,3.5S128,62.2,126.3,62.2z"/>
	<path class="st1" d="M157.9,115c-1.9,11.7-5.5,19.6-6.4,21.2l3.2,1.5c1.7,0.8,1.9,3.4,0.5,4.6l-9.8,8.1c-1.4,1.1-3.2,0.2-3.5-1.7
		l-2.1-13.8c-0.3-2,1.4-3.7,3.1-2.9l3,1.4c0.1-0.2,0.2-0.5,0.3-0.7c0.1-0.2,3.9-7.8,5.8-19.5c2.5-15.6,0.5-30.9-5.9-45.2
		c-0.8-1.7-0.2-3.9,1.3-4.8c1.5-0.9,3.3-0.2,4.1,1.5c3.9,8.7,6.3,17.9,7.2,27.3C159.4,99.7,159.2,107.4,157.9,115L157.9,115z"/>
</g>
</svg>
