<?xml version="1.0" standalone="no"?><!DOCTYPE svg PUBLIC "-//W3C//DTD SVG 1.1//EN" "http://www.w3.org/Graphics/SVG/1.1/DTD/svg11.dtd"><svg class="icon" width="64px" height="64.00px" viewBox="0 0 1024 1024" version="1.1" xmlns="http://www.w3.org/2000/svg"><path d="M400.7 733.8h399c52.7 0 95.5-42.8 95.5-95.5V223.5c-0.1-52.8-42.8-95.5-95.5-95.5h-399c-52.7 0-95.5 42.8-95.5 95.5v414.8c0 52.7 42.8 95.5 95.5 95.5z m-35.5-510.3c0-19.6 15.9-35.5 35.5-35.5h399c19.6 0 35.5 15.9 35.5 35.5v414.8c0 19.6-15.9 35.5-35.5 35.5h-399c-19.6 0-35.5-15.9-35.5-35.5V223.5z" fill="#515151" /><path d="M540.1 380.2h196c16.5 0 30-13.5 30-30s-13.5-30-30-30h-196c-16.5 0-30 13.5-30 30s13.5 30 30 30z m-63 163h260c16.5 0 30-13.5 30.1-30 0-16.5-13.5-30-30-30H477.1c-16.5 0-30 13.5-30 30s13.5 30 30 30z" fill="#515151" /><path d="M895.1 801.7H269.8c-4.8-27.4-23.6-50.1-48.8-60.3V291c0-5.1-1.4-10.2-3.9-14.7l-72-128c-8.2-14.4-26.5-19.6-40.9-11.4s-19.5 26.5-11.4 40.9L161 298.9v442.5c-29.3 11.9-50 40.6-50 74.2 0 44.2 35.8 80 80 80 27 0 50.9-13.4 65.4-33.9h638.7c16.6 0 30-13.4 30-30s-13.4-30-30-30z" fill="#515151" /></svg>