<?xml version="1.0" standalone="no"?><!DOCTYPE svg PUBLIC "-//W3C//DTD SVG 1.1//EN" "http://www.w3.org/Graphics/SVG/1.1/DTD/svg11.dtd"><svg t="1554793543207" class="icon" style="" viewBox="0 0 1024 1024" version="1.1" xmlns="http://www.w3.org/2000/svg" p-id="4926" xmlns:xlink="http://www.w3.org/1999/xlink" width="200" height="200"><defs><style type="text/css"></style></defs><path d="M512 960C264.6 960 64 759.4 64 512S264.6 64 512 64s448 200.6 448 448-200.6 448-448 448z m0-821.3c-206.2 0-373.3 167.1-373.3 373.3S305.8 885.3 512 885.3 885.3 718.2 885.3 512 718.2 138.7 512 138.7z m-9.1 547.2c-14.6 14.6-38.2 14.6-52.7 0-2.7-2.9-4.9-6.2-6.5-9.7L305 533.3c-14.6-14.6-14.6-38.2-0.1-52.8 14.6-14.6 38.2-14.6 52.8-0.1l0.7 0.7 120.1 123.6 229.3-229.3c14.8-14.3 38.5-13.9 52.8 0.9 14 14.5 14 37.4 0 51.8L502.9 685.9z" p-id="4927"></path></svg>