<?xml version="1.0" standalone="no"?><!DOCTYPE svg PUBLIC "-//W3C//DTD SVG 1.1//EN" "http://www.w3.org/Graphics/SVG/1.1/DTD/svg11.dtd"><svg class="icon" width="64px" height="64.00px" viewBox="0 0 1024 1024" version="1.1" xmlns="http://www.w3.org/2000/svg"><path d="M422.603 539.632c-146.286 0-263.314-117.029-263.314-263.315S276.317 13.003 422.603 13.003s263.314 117.029 263.314 263.314S568.89 539.632 422.603 539.632z m0-455.111c-105.65 0-191.797 86.146-191.797 191.796s86.146 191.797 191.797 191.797S614.4 381.968 614.4 276.317 528.254 84.521 422.603 84.521z" fill="#515151" /><path d="M66.641 942.73c-17.88 0-32.508-13.003-35.758-30.882-1.626-13.004-1.626-24.381-1.626-35.76 0-225.93 183.67-409.6 409.6-409.6 113.778 0 222.68 47.137 299.073 130.033 13.003 14.628 13.003 37.384-1.625 52.012-14.629 13.004-37.384 13.004-52.013-1.625-63.39-68.267-152.787-107.276-247.06-107.276-183.67 0-336.457 152.787-336.457 338.082 0 8.127 0 16.254 1.625 22.756 3.25 19.505-9.752 39.01-29.257 42.26H66.64z m726.553-146.286v-105.65c0-19.505 16.254-35.76 35.758-35.76s35.76 16.255 35.76 35.76v105.65h105.65c19.505 0 35.759 16.254 35.759 35.76s-16.254 35.758-35.76 35.758h-105.65v107.276c0 19.505-16.254 35.759-35.759 35.759s-35.758-16.254-35.758-35.759v-105.65H687.543c-19.505 0-35.759-16.255-35.759-35.76s16.254-35.758 35.759-35.758l105.65-1.626z" fill="#515151" /></svg>