<?xml version="1.0" encoding="utf-8"?>
<!-- Generator: Adobe Illustrator 22.0.0, SVG Export Plug-In . SVG Version: 6.00 Build 0)  -->
<svg version="1.1" id="图层_1" xmlns="http://www.w3.org/2000/svg" xmlns:xlink="http://www.w3.org/1999/xlink" x="0px" y="0px"
	 viewBox="0 0 200 200" style="enable-background:new 0 0 200 200;" xml:space="preserve">
<style type="text/css">
	.st0{clip-path:url(#SVGID_2_);fill:#67C8B5;}
	.st1{clip-path:url(#SVGID_4_);fill:#FFFFFF;}
</style>
<g>
	<defs>
		<circle id="SVGID_1_" cx="100" cy="100" r="100"/>
	</defs>
	<clipPath id="SVGID_2_">
		<use xlink:href="#SVGID_1_"  style="overflow:visible;"/>
	</clipPath>
	<rect x="-5" y="-5" class="st0" width="210" height="210"/>
</g>
<g>
	<defs>
		<path id="SVGID_3_" d="M115.9,92.4l-21.6,23l-8.8-9.6c-0.1-0.1-0.2-0.3-0.4-0.4c-1.8-1.7-4.7-1.7-6.4,0c-1.8,1.7-1.8,4.5,0,6.3
			L90.9,125c0.8,1,2.1,1.5,3.4,1.5s2.5-0.5,3.4-1.5l24.9-26.6c1.5-1.8,1.4-4.4-0.3-6C120.5,90.7,117.6,90.7,115.9,92.4z M150,144.1
			c0,4.9-4,8.9-9,8.9H60c-4.9,0-9-4-9-8.9V63.5c0-4.9,4-8.9,9-8.9h9V68c0,5,4,9,9,9h45c5,0,9-4,9-9V54.6h9c5,0,9,4,9,8.9V144.1z
			 M77.4,54.6c0-1.1,0.3-2.3,0.9-3.3c1.1-1.9,3-3.3,5.3-3.3h33.9c2.2,0,4.2,1.3,5.3,3.3c0.6,1,0.9,2.2,0.9,3.3V61
			c0,3.6-2.8,6.6-6.1,6.6H83.6c-3.4,0-6.1-3-6.1-6.6L77.4,54.6L77.4,54.6z"/>
	</defs>
	<clipPath id="SVGID_4_">
		<use xlink:href="#SVGID_3_"  style="overflow:visible;"/>
	</clipPath>
	<rect x="46" y="43" class="st1" width="109" height="115"/>
</g>
</svg>
