<?xml version="1.0" encoding="utf-8"?>
<!-- Generator: Adobe Illustrator 22.0.0, SVG Export Plug-In . SVG Version: 6.00 Build 0)  -->
<svg version="1.1" id="图层_1" xmlns="http://www.w3.org/2000/svg" xmlns:xlink="http://www.w3.org/1999/xlink" x="0px" y="0px"
	 viewBox="0 0 200 200" style="enable-background:new 0 0 200 200;" xml:space="preserve">
<style type="text/css">
	.st0{fill:#6499FE;}
	.st1{fill:#FFFFFF;}
</style>
<path class="st0" d="M0,100c0,55.2,44.8,100,100,100s100-44.8,100-100S155.2,0,100,0S0,44.8,0,100z"/>
<path class="st1" d="M59.2,136.7v-11.4h34.2v-5.7H59.2v-5.7h40v-5.7h-40V96.8h50.2c4,0,8.6-4,13.1-4.6c10.8-1.7,20.6,2.8,28,9.1
	V75.6c0-6.3-5.2-13.1-11.4-13.1h-24c-2.3-5.7-8.6-11.4-16-11.4s-13.7,5.7-16,11.4h-24c-6.3,0-11.4,6.8-11.4,13.1v62.8
	c0,6.3,5.1,9.7,11.4,9.7h42.8c-2.9,0-5.1-5.7-6.8-11.4L59.2,136.7L59.2,136.7z M99.2,61.3c4.6,0,8.6,4,8.6,8.6s-4,8.6-8.6,8.6
	c-4.7-0.1-8.5-3.9-8.6-8.6C90.7,65.3,94.7,61.3,99.2,61.3L99.2,61.3z M154.6,145.8l-5.1-5.1c2.3-4,4-8.6,4-13.7
	c0.1-14.1-11.3-25.6-25.5-25.7c-0.1,0-0.2,0-0.2,0c-14.1-0.1-25.6,11.3-25.7,25.5c0,0.1,0,0.2,0,0.2c-0.1,14.1,11.3,25.6,25.5,25.7
	c0.1,0,0.2,0,0.2,0c5.1,0,9.7-1.7,13.7-4l5.1,5.2c2.1,2.2,5.6,2.3,7.8,0.2c0.1-0.1,0.1-0.1,0.2-0.2c2.2-2.1,2.3-5.6,0.2-7.8
	C154.8,145.9,154.7,145.9,154.6,145.8L154.6,145.8z M127.8,143c-9.1,0-16-7.4-16-16c0-9.1,7.4-16,16-16s16,7.4,16,16
	C143.8,135.5,136.9,143,127.8,143L127.8,143z"/>
</svg>
