<?xml version="1.0" encoding="utf-8"?>
<!-- Generator: Adobe Illustrator 22.0.0, SVG Export Plug-In . SVG Version: 6.00 Build 0)  -->
<svg version="1.1" id="图层_1" xmlns="http://www.w3.org/2000/svg" xmlns:xlink="http://www.w3.org/1999/xlink" x="0px" y="0px"
	 viewBox="0 0 200 200" style="enable-background:new 0 0 200 200;" xml:space="preserve">
<style type="text/css">
	.st0{fill:#67C8B5;}
	.st1{fill:#FFFFFF;}
</style>
<path class="st0" d="M0,100c0,55.2,44.8,100,100,100s100-44.8,100-100S155.2,0,100,0S0,44.8,0,100z"/>
<g>
	<path class="st1" d="M130.3,118.1c-1.6,0-3.2,0.3-4.6,0.9l-15.3-27.5c2.7-2.3,4.5-5.7,4.5-9.6c0-6.9-5.6-12.5-12.4-12.5
		S90,75,90,82c0,3.2,1.2,6.1,3.2,8.3l-15.6,28.2c-1-0.2-2-0.4-3-0.4c-6.9,0-12.4,5.6-12.4,12.5s5.6,12.5,12.4,12.5
		c6.1,0,11.2-4.5,12.2-10.4h31.3c1,5.9,6.1,10.4,12.2,10.4c6.9,0,12.4-5.6,12.4-12.5C142.7,123.7,137.2,118.1,130.3,118.1
		L130.3,118.1z M97.2,93.3c1.6,0.8,3.4,1.2,5.2,1.2c1.3,0,2.4-0.2,3.6-0.6l15.5,27.8c-1.6,1.6-2.7,3.7-3.2,5.9H86.7
		c-0.7-2.9-2.3-5.3-4.6-7.1L97.2,93.3L97.2,93.3z"/>
	<path class="st1" d="M143.8,52.8H61.1c-6.7,0-12.1,5.4-12.1,12.1v82.8c0,6.7,5.4,12.1,12.1,12.1h82.7c6.7,0,12.1-5.4,12.1-12.1
		V64.9C156,58.2,150.5,52.8,143.8,52.8L143.8,52.8z M147.1,147.7c0,1.8-1.5,3.2-3.2,3.2H61.2c-1.8,0-3.2-1.4-3.2-3.2V64.9
		c0-1.8,1.5-3.2,3.2-3.2h82.7c1.8,0,3.2,1.4,3.2,2.1V147.7L147.1,147.7z"/>
</g>
</svg>
