<?xml version="1.0" encoding="utf-8"?>
<!-- Generator: Adobe Illustrator 22.0.0, SVG Export Plug-In . SVG Version: 6.00 Build 0)  -->
<svg version="1.1" id="图层_1" xmlns="http://www.w3.org/2000/svg" xmlns:xlink="http://www.w3.org/1999/xlink" x="0px" y="0px"
	 viewBox="0 0 200 200" style="enable-background:new 0 0 200 200;" xml:space="preserve">
<style type="text/css">
	.st0{fill:#F26D64;}
	.st1{display:none;}
	.st2{display:inline;}
	.st3{fill:#FFFFFF;}
	.st4{clip-path:url(#SVGID_16_);fill:#FFFFFF;}
	.st5{clip-path:url(#SVGID_18_);fill:#FFFFFF;}
</style>
<path class="st0" d="M0,99.8c0,55.2,44.8,100,100,100s100-44.8,100-100s-44.8-100-100-100S0,44.6,0,99.8z"/>
<g class="st1">
	<g class="st2">
		<g class="st1">
			<g class="st2">
				<path id="SVGID_2_" class="st3" d="M113.8,96.2c0-0.1,0.1-0.1,0.1-0.2c-2-0.8-3.8-2.4-6.2-2.8V93c1.1-1,2.2-2,3.3-2.9
					c2.5-3,4.7-6.2,6.1-10.3c4.5-14-4.1-25.5-12.4-30.4c-3-1.8-6.6-2.5-10.6-3.2c-2.7-0.5-5.9,0.2-7.9,0.7
					c-10.3,2.5-16.8,9-19.7,18.8c-3,10.1,2.9,23.9,9.4,26.9c0.1,0.1,0.2,0.3,0.3,0.5c-3.4,2.1-7,3.2-10.2,5.4
					c-12.5,8.8-23.5,26.2-23.1,47.8h57.6v-0.1c-2.6-3.6-4.8-7.5-6.1-12.5C90.2,116.6,102.1,99.8,113.8,96.2z"/>
			</g>
			<g class="st2">
				<g>
					<path id="SVGID_4_" class="st3" d="M113.8,96.2c0-0.1,0.1-0.1,0.1-0.2c-2-0.8-3.8-2.4-6.2-2.8V93c1.1-1,2.2-2,3.3-2.9
						c2.5-3,4.7-6.2,6.1-10.3c4.5-14-4.1-25.5-12.4-30.4c-3-1.8-6.6-2.5-10.6-3.2c-2.7-0.5-5.9,0.2-7.9,0.7
						c-10.3,2.5-16.8,9-19.7,18.8c-3,10.1,2.9,23.9,9.4,26.9c0.1,0.1,0.2,0.3,0.3,0.5c-3.4,2.1-7,3.2-10.2,5.4
						c-12.5,8.8-23.5,26.2-23.1,47.8h57.6v-0.1c-2.6-3.6-4.8-7.5-6.1-12.5C90.2,116.6,102.1,99.8,113.8,96.2z"/>
				</g>
				<g>
					<g>
						<path id="SVGID_6_" class="st3" d="M113.8,96.2c0-0.1,0.1-0.1,0.1-0.2c-2-0.8-3.8-2.4-6.2-2.8V93c1.1-1,2.2-2,3.3-2.9
							c2.5-3,4.7-6.2,6.1-10.3c4.5-14-4.1-25.5-12.4-30.4c-3-1.8-6.6-2.5-10.6-3.2c-2.7-0.5-5.9,0.2-7.9,0.7
							c-10.3,2.5-16.8,9-19.7,18.8c-3,10.1,2.9,23.9,9.4,26.9c0.1,0.1,0.2,0.3,0.3,0.5c-3.4,2.1-7,3.2-10.2,5.4
							c-12.5,8.8-23.5,26.2-23.1,47.8h57.6v-0.1c-2.6-3.6-4.8-7.5-6.1-12.5C90.2,116.6,102.1,99.8,113.8,96.2z"/>
					</g>
					<g>
						<g>
							<path id="SVGID_8_" class="st3" d="M113.8,96.2c0-0.1,0.1-0.1,0.1-0.2c-2-0.8-3.8-2.4-6.2-2.8V93c1.1-1,2.2-2,3.3-2.9
								c2.5-3,4.7-6.2,6.1-10.3c4.5-14-4.1-25.5-12.4-30.4c-3-1.8-6.6-2.5-10.6-3.2c-2.7-0.5-5.9,0.2-7.9,0.7
								c-10.3,2.5-16.8,9-19.7,18.8c-3,10.1,2.9,23.9,9.4,26.9c0.1,0.1,0.2,0.3,0.3,0.5c-3.4,2.1-7,3.2-10.2,5.4
								c-12.5,8.8-23.5,26.2-23.1,47.8h57.6v-0.1c-2.6-3.6-4.8-7.5-6.1-12.5C90.2,116.6,102.1,99.8,113.8,96.2z"/>
						</g>
						<g>
							<g>
								<path id="SVGID_10_" class="st3" d="M113.8,96.2c0-0.1,0.1-0.1,0.1-0.2c-2-0.8-3.8-2.4-6.2-2.8V93c1.1-1,2.2-2,3.3-2.9
									c2.5-3,4.7-6.2,6.1-10.3c4.5-14-4.1-25.5-12.4-30.4c-3-1.8-6.6-2.5-10.6-3.2c-2.7-0.5-5.9,0.2-7.9,0.7
									c-10.3,2.5-16.8,9-19.7,18.8c-3,10.1,2.9,23.9,9.4,26.9c0.1,0.1,0.2,0.3,0.3,0.5c-3.4,2.1-7,3.2-10.2,5.4
									c-12.5,8.8-23.5,26.2-23.1,47.8h57.6v-0.1c-2.6-3.6-4.8-7.5-6.1-12.5C90.2,116.6,102.1,99.8,113.8,96.2z"/>
							</g>
							<g>
								<g>
									<path id="SVGID_12_" class="st3" d="M113.8,96.2c0-0.1,0.1-0.1,0.1-0.2c-2-0.8-3.8-2.4-6.2-2.8V93c1.1-1,2.2-2,3.3-2.9
										c2.5-3,4.7-6.2,6.1-10.3c4.5-14-4.1-25.5-12.4-30.4c-3-1.8-6.6-2.5-10.6-3.2c-2.7-0.5-5.9,0.2-7.9,0.7
										c-10.3,2.5-16.8,9-19.7,18.8c-3,10.1,2.9,23.9,9.4,26.9c0.1,0.1,0.2,0.3,0.3,0.5c-3.4,2.1-7,3.2-10.2,5.4
										c-12.5,8.8-23.5,26.2-23.1,47.8h57.6v-0.1c-2.6-3.6-4.8-7.5-6.1-12.5C90.2,116.6,102.1,99.8,113.8,96.2z"/>
								</g>
								<g>
									<defs>
										<path id="SVGID_14_" d="M113.8,96.2c0-0.1,0.1-0.1,0.1-0.2c-2-0.8-3.8-2.4-6.2-2.8V93c1.1-1,2.2-2,3.3-2.9
											c2.5-3,4.7-6.2,6.1-10.3c4.5-14-4.1-25.5-12.4-30.4c-3-1.8-6.6-2.5-10.6-3.2c-2.7-0.5-5.9,0.2-7.9,0.7
											c-10.3,2.5-16.8,9-19.7,18.8c-3,10.1,2.9,23.9,9.4,26.9c0.1,0.1,0.2,0.3,0.3,0.5c-3.4,2.1-7,3.2-10.2,5.4
											c-12.5,8.8-23.5,26.2-23.1,47.8h57.6v-0.1c-2.6-3.6-4.8-7.5-6.1-12.5C90.2,116.6,102.1,99.8,113.8,96.2z"/>
									</defs>
									<clipPath id="SVGID_16_">
										<use xlink:href="#SVGID_14_"  style="overflow:visible;"/>
									</clipPath>
									<rect x="38" y="41" class="st4" width="85.4" height="110.3"/>
								</g>
							</g>
						</g>
					</g>
				</g>
			</g>
		</g>
	</g>
</g>
<g class="st1">
	<g class="st2">
		<g>
			<g>
				<path id="SVGID_5_" class="st3" d="M144,105.9L144,105.9h-8l-5.7,13c-0.5,1.1-0.8,1.9-1,2.5h-0.1l-6.8-15.5h-8.3l9.4,17.4h-7.1
					v4.9h8.7v4.3h-8.7v4.9h8.7v7.2h7.9v-7.2h8.4v-4.9H133v-4.3h8.4v-4.9h-6.9L144,105.9z M99.1,125.2c0-16.2,13.4-29.3,29.9-29.3
					s30,13.1,30,29.3s-13.4,29.3-29.9,29.3S99.1,141.4,99.1,125.2z"/>
			</g>
			<g>
				<g>
					<path id="SVGID_7_" class="st3" d="M144,105.9L144,105.9h-8l-5.7,13c-0.5,1.1-0.8,1.9-1,2.5h-0.1l-6.8-15.5h-8.3l9.4,17.4h-7.1
						v4.9h8.7v4.3h-8.7v4.9h8.7v7.2h7.9v-7.2h8.4v-4.9H133v-4.3h8.4v-4.9h-6.9L144,105.9z M99.1,125.2c0-16.2,13.4-29.3,29.9-29.3
						s30,13.1,30,29.3s-13.4,29.3-29.9,29.3S99.1,141.4,99.1,125.2z"/>
				</g>
				<g>
					<g>
						<path id="SVGID_9_" class="st3" d="M144,105.9L144,105.9h-8l-5.7,13c-0.5,1.1-0.8,1.9-1,2.5h-0.1l-6.8-15.5h-8.3l9.4,17.4
							h-7.1v4.9h8.7v4.3h-8.7v4.9h8.7v7.2h7.9v-7.2h8.4v-4.9H133v-4.3h8.4v-4.9h-6.9L144,105.9z M99.1,125.2
							c0-16.2,13.4-29.3,29.9-29.3s30,13.1,30,29.3s-13.4,29.3-29.9,29.3S99.1,141.4,99.1,125.2z"/>
					</g>
					<g>
						<g>
							<path id="SVGID_11_" class="st3" d="M144,105.9L144,105.9h-8l-5.7,13c-0.5,1.1-0.8,1.9-1,2.5h-0.1l-6.8-15.5h-8.3l9.4,17.4
								h-7.1v4.9h8.7v4.3h-8.7v4.9h8.7v7.2h7.9v-7.2h8.4v-4.9H133v-4.3h8.4v-4.9h-6.9L144,105.9z M99.1,125.2
								c0-16.2,13.4-29.3,29.9-29.3s30,13.1,30,29.3s-13.4,29.3-29.9,29.3S99.1,141.4,99.1,125.2z"/>
						</g>
						<g>
							<g>
								<path id="SVGID_13_" class="st3" d="M144,105.9L144,105.9h-8l-5.7,13c-0.5,1.1-0.8,1.9-1,2.5h-0.1l-6.8-15.5h-8.3l9.4,17.4
									h-7.1v4.9h8.7v4.3h-8.7v4.9h8.7v7.2h7.9v-7.2h8.4v-4.9H133v-4.3h8.4v-4.9h-6.9L144,105.9z M99.1,125.2
									c0-16.2,13.4-29.3,29.9-29.3s30,13.1,30,29.3s-13.4,29.3-29.9,29.3S99.1,141.4,99.1,125.2z"/>
							</g>
							<g>
								<g>
									<path id="SVGID_15_" class="st3" d="M144,105.9L144,105.9h-8l-5.7,13c-0.5,1.1-0.8,1.9-1,2.5h-0.1l-6.8-15.5h-8.3l9.4,17.4
										h-7.1v4.9h8.7v4.3h-8.7v4.9h8.7v7.2h7.9v-7.2h8.4v-4.9H133v-4.3h8.4v-4.9h-6.9L144,105.9z M99.1,125.2
										c0-16.2,13.4-29.3,29.9-29.3s30,13.1,30,29.3s-13.4,29.3-29.9,29.3S99.1,141.4,99.1,125.2z"/>
								</g>
								<g>
									<defs>
										<path id="SVGID_17_" d="M144,105.9L144,105.9h-8l-5.7,13c-0.5,1.1-0.8,1.9-1,2.5h-0.1l-6.8-15.5h-8.3l9.4,17.4h-7.1v4.9
											h8.7v4.3h-8.7v4.9h8.7v7.2h7.9v-7.2h8.4v-4.9H133v-4.3h8.4v-4.9h-6.9L144,105.9z M99.1,125.2c0-16.2,13.4-29.3,29.9-29.3
											s30,13.1,30,29.3s-13.4,29.3-29.9,29.3S99.1,141.4,99.1,125.2z"/>
									</defs>
									<clipPath id="SVGID_18_">
										<use xlink:href="#SVGID_17_"  style="overflow:visible;"/>
									</clipPath>
									<rect x="94.1" y="90.9" class="st5" width="69.9" height="68.6"/>
								</g>
							</g>
						</g>
					</g>
				</g>
			</g>
		</g>
	</g>
</g>
<path id="SVGID_1_" class="st3" d="M113.8,96.2c0-0.1,0.1-0.1,0.1-0.2c-2-0.8-3.8-2.4-6.2-2.8V93c1.1-1,2.2-2,3.3-2.9
	c2.5-3,4.7-6.2,6.1-10.3c4.5-14-4.1-25.5-12.4-30.4c-3-1.8-6.6-2.5-10.6-3.2c-2.7-0.5-5.9,0.2-7.9,0.7c-10.3,2.5-16.8,9-19.7,18.8
	c-3,10.1,2.9,23.9,9.4,26.9c0.1,0.1,0.2,0.3,0.3,0.5c-3.4,2.1-7,3.2-10.2,5.4c-12.5,8.8-23.5,26.2-23.1,47.8h57.6v-0.1
	c-2.6-3.6-4.8-7.5-6.1-12.5C90.2,116.6,102.1,99.8,113.8,96.2z"/>
<path id="SVGID_3_" class="st3" d="M144,105.9L144,105.9h-8l-5.7,13c-0.5,1.1-0.8,1.9-1,2.5h-0.1l-6.8-15.5h-8.3l9.4,17.4h-7.1v4.9
	h8.7v4.3h-8.7v4.9h8.7v7.2h7.9v-7.2h8.4v-4.9H133v-4.3h8.4v-4.9h-6.9L144,105.9z M99.1,125.2c0-16.2,13.4-29.3,29.9-29.3
	s30,13.1,30,29.3s-13.4,29.3-29.9,29.3S99.1,141.4,99.1,125.2z"/>
</svg>
