<?xml version="1.0" encoding="utf-8"?>
<!-- Generator: Adobe Illustrator 22.0.0, SVG Export Plug-In . SVG Version: 6.00 Build 0)  -->
<svg version="1.1" id="图层_1" xmlns="http://www.w3.org/2000/svg" xmlns:xlink="http://www.w3.org/1999/xlink" x="0px" y="0px"
	 viewBox="0 0 200 200" style="enable-background:new 0 0 200 200;" xml:space="preserve">
<style type="text/css">
	.st0{fill:#F26D64;}
	.st1{fill:#FFFFFF;}
</style>
<path class="st0" d="M-1,100c0,55.2,44.8,100,100,100s100-44.8,100-100S154.2,0,99,0S-1,44.8-1,100z"/>
<g>
	<path class="st1" d="M152.9,148.7c0.4,2.6-0.1,4.9-1.3,7c-1.2,2.1-2.9,3.3-5,3.7l-12.7,2.5c-2,0.4-3.9-0.1-5.7-1.6
		c-1.7-1.5-2.8-3.6-3.1-6.1l-10.8-83.4c-0.1-1.3-0.1-2.5,0.2-3.7s0.7-2.2,1.2-3.2s1.3-1.8,2.2-2.5c0.9-0.6,1.8-1.1,2.9-1.4l12.6-2.5
		c2.1-0.4,4,0.1,5.7,1.7c1.7,1.5,2.7,3.6,3.1,6.2L152.9,148.7z M99.7,57c2.1,0,3.9,0.9,5.4,2.7c1.5,1.8,2.2,4,2.2,6.6v86.3
		c0,2.6-0.7,4.8-2.2,6.6s-3.3,2.7-5.4,2.7h-11c-2.1,0-3.9-0.9-5.4-2.7s-2.2-4-2.2-6.6V66.3c0-2.6,0.6-4.8,1.7-6.6
		c1.1-1.8,2.8-2.7,5-2.7L99.7,57L99.7,57z M99.7,122.1c0.7,0,1.3-0.4,1.8-1.2c0.5-0.8,0.7-1.8,0.7-2.9c0-1.2-0.2-2.2-0.7-3
		s-1.1-1.2-1.8-1.2h-11c-0.7,0-1.3,0.4-1.8,1.2c-0.5,0.8-0.7,1.8-0.7,3c0,1.1,0.2,2.1,0.7,2.9s1.1,1.2,1.8,1.2H99.7z M99.7,105.7
		c0.7,0,1.3-0.4,1.8-1.2s0.7-1.8,0.7-3s-0.2-2.2-0.7-3s-1.1-1.2-1.8-1.2h-11c-0.7,0-1.3,0.4-1.8,1.2c-0.5,0.8-0.7,1.8-0.7,3
		s0.2,2.2,0.7,3s1.1,1.2,1.8,1.2H99.7z M66.6,57c2.1,0,3.9,0.9,5.4,2.7c1.5,1.8,2.3,4,2.3,6.6v86.3c0,2.6-0.8,4.8-2.3,6.6
		s-3.3,2.7-5.4,2.7h-11c-2.1,0-3.9-0.9-5.4-2.7s-2.3-4-2.3-6.6V66.3c0-2.6,0.8-4.8,2.3-6.6c1.5-1.8,3.3-2.7,5.4-2.7L66.6,57L66.6,57
		z M56,89.3c-0.8,0-1.4,0.4-1.9,1.2c-0.5,0.8-0.7,1.8-0.7,3c0,1.1,0.2,2.1,0.7,2.9s1.1,1.2,1.9,1.2h10.1c0.8,0,1.4-0.4,1.8-1.2
		c0.5-0.8,0.7-1.8,0.7-2.9c0-1.2-0.2-2.2-0.7-3s-1.1-1.2-1.8-1.2H56z M66.6,129.8c0.8,0,1.4-0.4,1.8-1.2c0.5-0.8,0.7-1.7,0.7-2.8
		c0-1.2-0.2-2.2-0.7-2.9c-0.5-0.7-1.1-1.1-1.8-1.1H56c-0.8,0-1.4,0.4-1.9,1.1s-0.7,1.7-0.7,2.9c0,1.1,0.2,2.1,0.7,2.8
		c0.5,0.8,1.1,1.2,1.9,1.2H66.6z M66.6,113.9c0.8,0,1.4-0.4,1.8-1.2c0.5-0.8,0.7-1.8,0.7-3s-0.2-2.2-0.7-3s-1.1-1.2-1.8-1.2H56
		c-0.8,0-1.4,0.4-1.9,1.2c-0.5,0.8-0.7,1.8-0.7,3s0.2,2.2,0.7,3s1.1,1.2,1.9,1.2H66.6z"/>
</g>
</svg>
