<?xml version="1.0" encoding="utf-8"?>
<!-- Generator: Adobe Illustrator 22.0.0, SVG Export Plug-In . SVG Version: 6.00 Build 0)  -->
<svg version="1.1" id="图层_1" xmlns="http://www.w3.org/2000/svg" xmlns:xlink="http://www.w3.org/1999/xlink" x="0px" y="0px"
	 viewBox="0 0 130 130" style="enable-background:new 0 0 130 130;" xml:space="preserve">
<g>
	<path d="M124.3,111.2c0.5,3-0.1,5.7-1.5,8.2c-1.4,2.5-3.3,3.9-5.7,4.3l-14.4,2.9c-2.3,0.5-4.4-0.1-6.4-1.9
		c-1.9-1.8-3.2-4.2-3.5-7.1L80.6,20.2c-0.1-1.5-0.1-2.9,0.2-4.3c0.3-1.4,0.8-2.6,1.4-3.7s1.5-2.1,2.5-2.9c1-0.7,2-1.3,3.3-1.6
		l14.3-2.9c2.4-0.5,4.5,0.1,6.4,2c1.9,1.8,3.1,4.2,3.5,7.2L124.3,111.2z M64.1,4.1c2.4,0,4.4,1.1,6.1,3.2c1.7,2.1,2.5,4.7,2.5,7.7
		v100.9c0,3-0.8,5.6-2.5,7.7c-1.7,2.1-3.7,3.2-6.1,3.2H51.7c-2.4,0-4.4-1.1-6.1-3.2c-1.7-2.1-2.5-4.7-2.5-7.7V14.9
		c0-3,0.7-5.6,1.9-7.7c1.2-2.1,3.2-3.2,5.7-3.2L64.1,4.1L64.1,4.1z M64.1,80.1c0.8,0,1.5-0.5,2-1.4c0.6-0.9,0.8-2.1,0.8-3.4
		c0-1.4-0.2-2.6-0.8-3.5c-0.6-0.9-1.2-1.4-2-1.4H51.7c-0.8,0-1.5,0.5-2,1.4c-0.6,0.9-0.8,2.1-0.8,3.5c0,1.3,0.2,2.5,0.8,3.4
		c0.6,0.9,1.2,1.4,2,1.4H64.1z M64.1,61c0.8,0,1.5-0.5,2-1.4s0.8-2.1,0.8-3.5s-0.2-2.6-0.8-3.5s-1.2-1.4-2-1.4H51.7
		c-0.8,0-1.5,0.5-2,1.4c-0.6,0.9-0.8,2.1-0.8,3.5s0.2,2.6,0.8,3.5c0.6,0.9,1.2,1.4,2,1.4H64.1z M26.7,4.1c2.4,0,4.4,1.1,6.1,3.2
		c1.7,2.1,2.6,4.7,2.6,7.7v100.9c0,3-0.9,5.6-2.6,7.7c-1.7,2.1-3.7,3.2-6.1,3.2H14.2c-2.4,0-4.4-1.1-6.1-3.2
		c-1.7-2.1-2.6-4.7-2.6-7.7V14.9c0-3,0.9-5.6,2.6-7.7c1.7-2.1,3.7-3.2,6.1-3.2L26.7,4.1L26.7,4.1z M14.7,41.8
		c-0.9,0-1.6,0.5-2.1,1.4c-0.6,0.9-0.8,2.1-0.8,3.5c0,1.3,0.2,2.5,0.8,3.4c0.6,0.9,1.2,1.4,2.1,1.4h11.4c0.9,0,1.6-0.5,2-1.4
		c0.6-0.9,0.8-2.1,0.8-3.4c0-1.4-0.2-2.6-0.8-3.5c-0.6-0.9-1.2-1.4-2-1.4H14.7z M26.7,89.1c0.9,0,1.6-0.5,2-1.4
		c0.6-0.9,0.8-2,0.8-3.3c0-1.4-0.2-2.6-0.8-3.4c-0.6-0.8-1.2-1.3-2-1.3h-12c-0.9,0-1.6,0.5-2.1,1.3c-0.6,0.8-0.8,2-0.8,3.4
		c0,1.3,0.2,2.5,0.8,3.3c0.6,0.9,1.2,1.4,2.1,1.4H26.7z M26.7,70.6c0.9,0,1.6-0.5,2-1.4c0.6-0.9,0.8-2.1,0.8-3.5
		c0-1.4-0.2-2.6-0.8-3.5c-0.6-0.9-1.2-1.4-2-1.4h-12c-0.9,0-1.6,0.5-2.1,1.4c-0.6,0.9-0.8,2.1-0.8,3.5c0,1.4,0.2,2.6,0.8,3.5
		c0.6,0.9,1.2,1.4,2.1,1.4H26.7z"/>
</g>
</svg>
